<svg width="859" height="720" viewBox="0 0 859 720" fill="none" xmlns="http://www.w3.org/2000/svg">
<g clip-path="url(#clip0_1938_11190)">
<path d="M335.98 46.99C342.668 46.99 348.09 41.5682 348.09 34.88C348.09 28.1919 342.668 22.77 335.98 22.77C329.292 22.77 323.87 28.1919 323.87 34.88C323.87 41.5682 329.292 46.99 335.98 46.99Z" fill="#00184D"/>
<path d="M380.17 14.3599H379.88C375.866 13.6767 372.277 11.4518 369.88 8.15994C367.498 4.9135 364.192 2.46146 360.394 1.1246C356.597 -0.212252 352.484 -0.371678 348.594 0.667183C344.704 1.70604 341.218 3.89482 338.592 6.94717C335.966 9.99952 334.323 13.7733 333.877 17.7749C333.431 21.7764 334.203 25.8194 336.093 29.3749C337.982 32.9305 340.9 35.833 344.466 37.7027C348.032 39.5725 352.079 40.3224 356.078 39.8545C360.077 39.3865 363.842 37.7224 366.88 35.0799C368.13 36.8626 369.8 38.3102 371.742 39.2951C373.684 40.28 375.839 40.7718 378.016 40.7272C380.193 40.6827 382.325 40.1031 384.225 39.0396C386.125 37.9761 387.735 36.4614 388.911 34.6291C390.087 32.7967 390.795 30.703 390.971 28.5327C391.147 26.3624 390.786 24.1821 389.92 22.1841C389.055 20.1861 387.71 18.4319 386.007 17.0761C384.303 15.7204 382.291 14.8047 380.15 14.4099L380.17 14.3599Z" fill="#00184D"/>
<path d="M287.59 269.74C285.159 269.649 282.773 269.052 280.586 267.987C278.399 266.922 276.458 265.412 274.887 263.554C273.316 261.697 272.15 259.532 271.464 257.198C270.777 254.864 270.585 252.412 270.9 250L294.19 128.44C298.02 116.88 303.93 111.13 313.96 112.44C323.35 113.64 329.96 122.34 329.19 131.77L305.58 254.58C305.001 258.892 302.837 262.834 299.509 265.637C296.181 268.44 291.928 269.903 287.58 269.74H287.59Z" fill="#0075C9"/>
<path d="M716.52 355.31H0.5V715.49H716.52V355.31Z" fill="#E9F0F6"/>
<path d="M334.29 711.18H315.06L309.38 557.61H339.97L334.29 711.18Z" fill="#ACD2ED" stroke="#00184D" stroke-linecap="round" stroke-linejoin="round"/>
<path d="M381.73 711.18H401.33L407.11 557.61H375.95L381.73 711.18Z" fill="#ACD2ED" stroke="#00184D" stroke-linecap="round" stroke-linejoin="round"/>
<path d="M859.42 479.17C859.458 444.17 846.562 410.391 823.21 384.32C812.46 372.27 807.14 355.94 810.53 340.15C813.66 325.537 813.337 310.396 809.587 295.93C805.837 281.464 798.764 268.072 788.93 256.82C777.62 243.89 773.13 225.97 778.04 209.52C781.042 199.354 781.509 188.608 779.4 178.22C777.636 169.834 774.21 161.886 769.325 154.845C764.44 147.804 758.195 141.812 750.957 137.223C743.72 132.634 735.637 129.541 727.184 128.126C718.732 126.711 710.082 127.002 701.745 128.984C693.407 130.965 685.551 134.595 678.639 139.662C671.727 144.728 665.899 151.126 661.5 158.48C657.1 165.835 654.218 173.995 653.022 182.481C651.827 190.967 652.343 199.607 654.54 207.89C659.11 224.83 656.33 243.09 644.67 256.19C634.647 267.463 627.418 280.935 623.567 295.519C619.715 310.103 619.35 325.389 622.5 340.14C625.91 356.01 620.5 372.37 609.68 384.49C596.53 399.228 586.596 416.545 580.511 435.337C574.426 454.128 572.325 473.981 574.34 493.63C580.87 559.9 634.07 613.87 700.26 621.17C700.48 621.17 700.7 621.17 700.92 621.23V715.5H732.12V621.22C767.108 617.375 799.446 600.754 822.937 574.541C846.428 548.328 859.419 514.368 859.42 479.17Z" fill="#ACD2ED"/>
<path d="M0.5 715.5H732.12" stroke="#00184D" stroke-miterlimit="10"/>
<path d="M438.21 364C438.924 363.655 439.745 363.606 440.495 363.865C441.244 364.123 441.861 364.668 442.21 365.38L445.78 372.68C446.302 372.442 446.882 372.359 447.45 372.44C447.84 372.496 448.215 372.629 448.554 372.83C448.893 373.032 449.189 373.298 449.424 373.614C449.66 373.929 449.832 374.289 449.929 374.671C450.026 375.053 450.047 375.45 449.99 375.84L449.38 380.04L451.05 383.46C451.396 384.173 451.446 384.993 451.189 385.742C450.933 386.492 450.39 387.109 449.68 387.46C449.236 387.668 448.75 387.767 448.26 387.75L447.1 395.75C447.044 396.14 446.911 396.515 446.709 396.854C446.508 397.193 446.242 397.488 445.926 397.724C445.61 397.96 445.251 398.131 444.869 398.229C444.487 398.326 444.09 398.347 443.7 398.29C443.31 398.234 442.935 398.101 442.596 397.899C442.257 397.698 441.962 397.432 441.726 397.116C441.49 396.8 441.319 396.441 441.222 396.059C441.124 395.677 441.104 395.28 441.16 394.89L443.16 381L436.8 368C436.457 367.283 436.413 366.458 436.677 365.708C436.941 364.958 437.493 364.344 438.21 364Z" fill="#ACD2ED" stroke="#00184D" stroke-linecap="round" stroke-linejoin="round"/>
<path d="M428.81 384.36L429.81 377.75C430.359 374.821 430.16 371.801 429.23 368.97C427.71 363.75 427.23 358.27 428.03 356.18C428.4 355.18 429.3 352.81 430.15 350.55L419.52 276.46L441.8 273.27L448.57 349.68L454.57 370.06C454.716 370.54 454.794 371.038 454.8 371.54C454.812 372.123 454.727 372.704 454.55 373.26L452.36 388.37V388.47L452.07 390.37L450 404.54C449.894 404.814 449.714 405.053 449.48 405.23C449.128 405.429 448.723 405.516 448.32 405.48C447.886 405.423 447.474 405.255 447.124 404.992C446.773 404.729 446.497 404.381 446.32 403.98C445.32 402.38 445.24 398.87 445.24 398.87L446.38 388.35L446.59 386.44L444 371.76C443.421 371.317 442.794 370.941 442.13 370.64C440.958 370.559 439.78 370.613 438.62 370.8L436.75 379.18C436.75 379.18 435.98 383.89 435.75 385.62C435.52 387.35 433.97 390.02 431.11 389.32C428.25 388.62 428.81 384.36 428.81 384.36Z" fill="#ACD2ED" stroke="#00184D" stroke-linecap="round" stroke-linejoin="round"/>
<path d="M459.11 340.15L425.94 348L386.46 133C385.428 128.471 386.233 123.717 388.7 119.78C391.167 115.844 395.094 113.046 399.62 112C404.151 110.968 408.906 111.775 412.843 114.244C416.779 116.712 419.576 120.642 420.62 125.17L459.11 340.15Z" fill="#0075C9" stroke="#00184D" stroke-miterlimit="10"/>
<path d="M411.45 294.92L421.45 131.3C421.45 125.028 418.958 119.012 414.523 114.577C410.088 110.142 404.072 107.65 397.8 107.65L358.23 102.65L318.29 107.65C312.018 107.65 306.002 110.142 301.567 114.577C297.132 119.012 294.64 125.028 294.64 131.3L304.64 294.92H411.45Z" fill="#F2A900"/>
<path d="M346.71 671.18H300.64V294.92L355.38 350.32L346.71 671.18Z" fill="#00184D" stroke="#00184D" stroke-miterlimit="10"/>
<path d="M417.58 669.99H371.51L363.68 350.55L417.58 293.73V669.99Z" fill="#00184D" stroke="#00184D" stroke-miterlimit="10"/>
<path d="M397.53 290.83H323.77V350.32H397.53V290.83Z" fill="#00184D" stroke="#00184D" stroke-miterlimit="10"/>
<path d="M313.66 487.55H345.56" stroke="#ACD2ED" stroke-miterlimit="10"/>
<path d="M374.13 487.55H406.03" stroke="#ACD2ED" stroke-miterlimit="10"/>
<path d="M345.34 103.65L318.34 107.65C312.068 107.65 306.052 110.142 301.617 114.577C297.182 119.012 294.69 125.028 294.69 131.3V347.92H345.39L345.34 103.65Z" fill="#0075C9"/>
<path d="M303.16 261.39L294.64 316.68V257.56L303.16 261.39Z" fill="#00184D"/>
<path d="M294.64 252.71V347.92H345.34V103.65L318.34 107.65C312.96 107.649 307.74 109.482 303.542 112.847C299.344 116.212 296.419 120.908 295.25 126.16L285.3 175.25" stroke="#00184D" stroke-linecap="round" stroke-linejoin="round"/>
<path d="M342.3 202.96L333.14 166.05L324.99 157.9L342.3 107.38" stroke="#ACD2ED" stroke-linecap="round" stroke-linejoin="round"/>
<path d="M429.9 340.57C431.336 340.57 432.5 339.406 432.5 337.97C432.5 336.534 431.336 335.37 429.9 335.37C428.464 335.37 427.3 336.534 427.3 337.97C427.3 339.406 428.464 340.57 429.9 340.57Z" stroke="#ACD2ED" stroke-miterlimit="10"/>
<path d="M370.74 103.65L397.8 107.65C404.073 107.65 410.088 110.142 414.523 114.577C418.959 119.012 421.45 125.028 421.45 131.3V347.92H370.74V103.65Z" fill="#0075C9"/>
<path d="M421.45 180.92V347.92H370.74V103.65L397.8 107.65C410.86 107.65 421.99 117.92 421.99 132.57" stroke="#00184D" stroke-miterlimit="10"/>
<path d="M380.84 241.39C382.955 241.39 384.67 239.675 384.67 237.56C384.67 235.445 382.955 233.73 380.84 233.73C378.725 233.73 377.01 235.445 377.01 237.56C377.01 239.675 378.725 241.39 380.84 241.39Z" stroke="white" stroke-miterlimit="10"/>
<path d="M380.84 261.39C382.955 261.39 384.67 259.675 384.67 257.56C384.67 255.445 382.955 253.73 380.84 253.73C378.725 253.73 377.01 255.445 377.01 257.56C377.01 259.675 378.725 261.39 380.84 261.39Z" stroke="white" stroke-miterlimit="10"/>
<path d="M380.84 281.39C382.955 281.39 384.67 279.675 384.67 277.56C384.67 275.445 382.955 273.73 380.84 273.73C378.725 273.73 377.01 275.445 377.01 277.56C377.01 279.675 378.725 281.39 380.84 281.39Z" stroke="white" stroke-miterlimit="10"/>
<path d="M332.038 68.9703C333.774 68.2841 333.866 64.401 332.244 60.2973C330.622 56.1935 327.899 53.4232 326.163 54.1094C324.427 54.7957 324.335 58.6788 325.957 62.7825C327.58 66.8862 330.302 69.6566 332.038 68.9703Z" fill="#ACD2ED" stroke="#00184D" stroke-linecap="round" stroke-linejoin="round"/>
<path d="M390.255 62.7996C391.878 58.6959 391.785 54.8128 390.049 54.1266C388.313 53.4403 385.591 56.2107 383.969 60.3144C382.346 64.4181 382.439 68.3012 384.175 68.9875C385.911 69.6738 388.633 66.9034 390.255 62.7996Z" fill="#ACD2ED" stroke="#00184D" stroke-linecap="round" stroke-linejoin="round"/>
<path d="M345.34 90.1399H370.86V113.22C370.86 114.888 370.531 116.539 369.893 118.08C369.255 119.621 368.319 121.021 367.14 122.2C365.961 123.379 364.561 124.315 363.02 124.953C361.479 125.591 359.828 125.92 358.16 125.92H358C356.332 125.92 354.681 125.591 353.14 124.953C351.599 124.315 350.199 123.379 349.02 122.2C347.84 121.021 346.905 119.621 346.267 118.08C345.628 116.539 345.3 114.888 345.3 113.22V90.1399H345.34Z" fill="#ACD2ED" stroke="#00184D" stroke-linecap="round" stroke-linejoin="round"/>
<path d="M358.1 31C350.674 31 343.552 33.95 338.301 39.201C333.05 44.452 330.1 51.5739 330.1 59V65.56C330.1 95.05 345.28 106.95 353.29 111.18C354.774 111.963 356.427 112.372 358.105 112.372C359.783 112.372 361.436 111.963 362.92 111.18C370.92 106.95 386.1 95.05 386.1 65.56V59C386.1 51.5739 383.15 44.452 377.899 39.201C372.648 33.95 365.526 31 358.1 31Z" fill="#00184D"/>
<path d="M358.1 22C350.674 22 343.552 24.95 338.301 30.201C333.05 35.452 330.1 42.5739 330.1 50V60.56C330.1 90.05 345.28 101.95 353.29 106.18C354.774 106.963 356.427 107.372 358.105 107.372C359.783 107.372 361.436 106.963 362.92 106.18C370.92 101.95 386.1 90.05 386.1 60.56V50C386.1 42.5739 383.15 35.452 377.899 30.201C372.648 24.95 365.526 22 358.1 22Z" fill="#ACD2ED" stroke="#00184D" stroke-linecap="round" stroke-linejoin="round"/>
<path d="M340.23 54.62C341.669 53.9349 343.229 53.5431 344.821 53.4676C346.412 53.3921 348.003 53.6342 349.5 54.18" stroke="#00184D" stroke-linecap="round" stroke-linejoin="round"/>
<path d="M344.74 61.5499C345.745 61.5499 346.56 60.7351 346.56 59.7299C346.56 58.7248 345.745 57.9099 344.74 57.9099C343.735 57.9099 342.92 58.7248 342.92 59.7299C342.92 60.7351 343.735 61.5499 344.74 61.5499Z" fill="#00184D"/>
<path d="M375.18 54.62C373.742 53.9349 372.181 53.5431 370.589 53.4676C368.998 53.3921 367.407 53.6342 365.91 54.18" fill="white"/>
<path d="M375.18 54.62C373.742 53.9349 372.181 53.5431 370.589 53.4676C368.998 53.3921 367.407 53.6342 365.91 54.18" stroke="#00184D" stroke-linecap="round" stroke-linejoin="round"/>
<path d="M369.96 61.5499C370.965 61.5499 371.78 60.7351 371.78 59.7299C371.78 58.7248 370.965 57.9099 369.96 57.9099C368.955 57.9099 368.14 58.7248 368.14 59.7299C368.14 60.7351 368.955 61.5499 369.96 61.5499Z" fill="#00184D"/>
<path d="M353.4 85.44C355.749 86.311 358.306 86.4485 360.735 85.8343C363.163 85.22 365.348 83.883 367 82" stroke="#00184D" stroke-linecap="round" stroke-linejoin="round"/>
<path d="M362.17 73.38C362.546 73.3761 362.917 73.2982 363.262 73.1508C363.608 73.0035 363.921 72.7895 364.184 72.5211C364.446 72.2528 364.654 71.9353 364.794 71.5868C364.934 71.2383 365.004 70.8656 365 70.49L361.89 67.41C361.503 67.0265 361.196 66.5701 360.986 66.0672C360.777 65.5642 360.669 65.0248 360.67 64.48" stroke="#ACD2ED" stroke-linecap="round" stroke-linejoin="round"/>
<path d="M355.5 64.48C355.5 65.0248 355.393 65.5642 355.183 66.0672C354.974 66.5701 354.667 67.0265 354.28 67.41L351.17 70.49C351.163 70.8663 351.231 71.2401 351.371 71.5898C351.51 71.9395 351.717 72.2581 351.98 72.527C352.244 72.7959 352.558 73.0098 352.904 73.1562C353.251 73.3027 353.624 73.3787 354 73.38H359.49" stroke="#00184D" stroke-linecap="round" stroke-linejoin="round"/>
<path d="M350.38 96.9299L352.38 94.9299C354.025 93.2869 356.255 92.3628 358.58 92.3599H362.12L366.3 96.5399" stroke="#95C0DB" stroke-linecap="round" stroke-linejoin="round"/>
<path d="M358.1 21C350.674 21 343.552 23.95 338.301 29.201C333.05 34.452 330.1 41.5739 330.1 49V60.56C330.1 90.05 345.28 101.95 353.29 106.18C354.774 106.963 356.427 107.372 358.105 107.372C359.783 107.372 361.436 106.963 362.92 106.18C370.92 101.95 386.1 90.05 386.1 60.56V49C386.1 41.5739 383.15 34.452 377.899 29.201C372.648 23.95 365.526 21 358.1 21V21Z" stroke="#00184D" stroke-miterlimit="10"/>
<path d="M342.94 62.6199H345.74" stroke="#95C0DB" stroke-linecap="round" stroke-linejoin="round"/>
<path d="M368.94 62.6199H371.74" stroke="#95C0DB" stroke-linecap="round" stroke-linejoin="round"/>
<path d="M339.65 58.3999L341.23 59.7799L339.65 61.6199" stroke="#95C0DB" stroke-linecap="round" stroke-linejoin="round"/>
<path d="M375.23 58.3999L373.65 59.7799L375.23 61.6199" stroke="#95C0DB" stroke-linecap="round" stroke-linejoin="round"/>
<path d="M349.5 74.9099L345.55 80.4199V86.2099" stroke="#95C0DB" stroke-linecap="round" stroke-linejoin="round"/>
<path d="M367.55 74.9099L371.5 80.4199V86.2099" stroke="#95C0DB" stroke-linecap="round" stroke-linejoin="round"/>
<path d="M304.64 294.92H335.56V330.26" stroke="#ACD2ED" stroke-linecap="round" stroke-linejoin="round"/>
<path d="M412.05 294.92H381.13V330.26" stroke="#ACD2ED" stroke-linecap="round" stroke-linejoin="round"/>
<path d="M447.99 342.79L430.18 350.55L429.9 347.09L447.99 342.79Z" fill="#00184D"/>
<path d="M454.09 333.62L437.19 336.96" stroke="#00184D" stroke-miterlimit="10"/>
<path d="M336.05 157.91C338.265 157.91 340.06 156.115 340.06 153.9C340.06 151.685 338.265 149.89 336.05 149.89C333.835 149.89 332.04 151.685 332.04 153.9C332.04 156.115 333.835 157.91 336.05 157.91Z" stroke="#00184D" stroke-miterlimit="10"/>
<path d="M713.61 571.92V287.64" stroke="#00184D" stroke-miterlimit="10"/>
<path d="M64.37 138.27C99.6444 138.27 128.24 109.674 128.24 74.4C128.24 39.1256 99.6444 10.53 64.37 10.53C29.0956 10.53 0.5 39.1256 0.5 74.4C0.5 109.674 29.0956 138.27 64.37 138.27Z" stroke="#00184D" stroke-miterlimit="10"/>
<path d="M334 22.9199C334 22.9199 363.79 37.9999 386.2 37.6399L382.56 24.3399L364.23 12.6799C364.23 12.6799 345.1 16.9199 334 22.9199Z" fill="#00184D"/>
<path d="M338.68 26.3401L329.68 44.2401L328.35 29.1801L335.53 23.7601C335.902 23.4604 336.366 23.2979 336.843 23.2998C337.321 23.3018 337.783 23.468 338.153 23.7707C338.522 24.0733 338.777 24.4939 338.873 24.9618C338.969 25.4297 338.901 25.9164 338.68 26.3401Z" fill="#00184D"/>
<path d="M324.75 38.42L329.88 64.6201L331.49 34.8L324.75 38.42Z" fill="#00184D"/>
<path d="M390.25 42.3601L385.9 64.6201L384.29 34.8L387.5 36.53C388.521 37.0806 389.339 37.9437 389.834 38.9928C390.329 40.042 390.474 41.222 390.25 42.3601Z" fill="#00184D"/>
<path d="M221.91 84C221.363 84.5367 221.011 85.2406 220.91 86C220.816 86.872 221.063 87.7465 221.6 88.44L236.6 107.24L236.35 107.79L221.55 93.64C220.928 93.0172 220.09 92.6589 219.21 92.64C218.342 92.6365 217.507 92.9699 216.88 93.57C216.247 94.1811 215.877 95.015 215.849 95.8945C215.821 96.7741 216.137 97.6299 216.73 98.28L232.39 115.15L232.19 116.27L221 106C220.511 105.57 219.908 105.29 219.263 105.197C218.618 105.103 217.961 105.199 217.369 105.472C216.778 105.745 216.279 106.185 215.933 106.736C215.587 107.288 215.409 107.929 215.42 108.58C215.446 109.449 215.804 110.276 216.42 110.89L230.42 124.42L239.07 131.53L249.14 137.07L251.14 142.07C251.445 142.82 252.011 143.435 252.732 143.802C253.454 144.169 254.284 144.264 255.07 144.07L268.37 136.53C269.153 136.329 269.84 135.858 270.31 135.2C270.768 134.53 270.97 133.717 270.88 132.91L270.01 124.91L269.68 120.63L269.62 110.13C269.605 109.99 269.575 109.853 269.53 109.72L264.53 97.99L259.47 90.99C259.156 90.6722 258.783 90.4201 258.371 90.2484C257.959 90.0767 257.516 89.9889 257.07 89.99C256.451 90.0014 255.862 90.2566 255.43 90.7C254.826 91.2986 254.474 92.1055 254.447 92.9552C254.419 93.8049 254.717 94.633 255.28 95.27L258.58 100.72C258.64 100.84 258.7 100.97 258.77 101.08L259.94 104.67C260.091 105.127 260.059 105.626 259.85 106.06C259.744 106.287 259.594 106.491 259.408 106.66C259.223 106.829 259.006 106.96 258.77 107.044C258.533 107.129 258.283 107.166 258.032 107.153C257.782 107.14 257.536 107.078 257.31 106.97L257.1 106.87C256.86 106.753 256.649 106.586 256.48 106.38L252.02 101.11L237.32 80.42C237.053 80.048 236.713 79.7349 236.32 79.5C235.942 79.2632 235.52 79.1035 235.08 79.03C234.437 78.9304 233.779 79.0213 233.187 79.2914C232.596 79.5615 232.096 79.9991 231.75 80.55C231.407 81.0915 231.223 81.7188 231.22 82.36C231.224 83.007 231.415 83.6392 231.77 84.18L243.63 102.52L242.45 102.78L226.89 84.25C226.315 83.5874 225.507 83.172 224.633 83.09C223.76 83.0081 222.888 83.2659 222.2 83.81C222.07 83.83 222 83.92 221.91 84Z" fill="#ACD2ED" stroke="#00184D" stroke-linecap="round" stroke-linejoin="round"/>
<path d="M270.39 257.31C271.959 261.897 275.286 265.672 279.639 267.806C283.991 269.94 289.013 270.258 293.6 268.69C295.873 267.915 297.971 266.7 299.774 265.114C301.577 263.528 303.05 261.602 304.109 259.447C305.168 257.291 305.791 254.948 305.944 252.552C306.097 250.155 305.776 247.752 305 245.48L272.2 130.12L247.2 140.06" fill="#0CDAA7"/>
<path d="M270.39 257.31C271.959 261.897 275.286 265.672 279.639 267.806C283.991 269.94 289.013 270.258 293.6 268.69C295.873 267.915 297.971 266.7 299.774 265.114C301.577 263.528 303.05 261.602 304.109 259.447C305.168 257.291 305.791 254.948 305.944 252.552C306.097 250.155 305.776 247.752 305 245.48L272.2 130.12L247.2 140.06L270.39 257.31Z" fill="#0075C9"/>
<path d="M289.88 192.33L272.2 130.12L247.2 140.06L270.39 257.31C271.959 261.897 275.286 265.672 279.639 267.806C283.991 269.94 289.013 270.258 293.6 268.69C295.873 267.915 297.971 266.7 299.774 265.114C301.577 263.528 303.05 261.602 304.109 259.447C305.168 257.291 305.791 254.948 305.944 252.552C306.097 250.155 305.776 247.752 305 245.48" stroke="#00184D" stroke-linecap="round" stroke-linejoin="round"/>
<path d="M255.38 151.46L273.4 144.97" stroke="#00184D" stroke-linecap="round" stroke-linejoin="round"/>
<path d="M257.24 108C257.24 108 250.67 116.81 259.38 128.34L257.24 108Z" fill="#ACD2ED"/>
<path d="M257.24 108C257.24 108 250.67 116.81 259.38 128.34" stroke="#00184D" stroke-linecap="round" stroke-linejoin="round"/>
<path d="M372.6 715.5C372.6 715.5 372.67 701.81 377.44 699.11L379.29 695.25C379.78 692.543 381.204 690.094 383.315 688.331C385.426 686.567 388.089 685.6 390.84 685.6C393.338 685.6 395.772 686.396 397.787 687.872C399.803 689.348 401.296 691.428 402.05 693.81L405.76 699.26C405.76 699.26 413.29 703.07 413.29 715.5H372.6Z" fill="#00184D" stroke="#00184D" stroke-miterlimit="10"/>
<path d="M392.82 690.875C393.999 689.696 392.594 686.378 389.68 683.465C386.767 680.551 383.449 679.146 382.27 680.325C381.09 681.505 382.496 684.822 385.409 687.736C388.323 690.649 391.64 692.055 392.82 690.875Z" stroke="#00184D" stroke-miterlimit="10"/>
<path d="M398.334 687.732C401.247 684.819 402.652 681.501 401.473 680.322C400.294 679.142 396.976 680.548 394.063 683.461C391.149 686.375 389.744 689.692 390.923 690.872C392.102 692.051 395.42 690.646 398.334 687.732Z" stroke="#00184D" stroke-miterlimit="10"/>
<path d="M374.33 711.85H410.8" stroke="#00184D" stroke-miterlimit="10"/>
<path d="M343.57 715.5C343.57 715.5 343.51 701.81 338.73 699.11L336.89 695.25C336.396 692.543 334.969 690.095 332.857 688.332C330.745 686.569 328.081 685.602 325.33 685.6C322.832 685.598 320.399 686.393 318.384 687.869C316.37 689.346 314.879 691.427 314.13 693.81L310.41 699.26C310.41 699.26 302.88 703.07 302.88 715.5H343.57Z" fill="#00184D" stroke="#00184D" stroke-miterlimit="10"/>
<path d="M330.764 687.731C333.677 684.818 335.083 681.5 333.904 680.321C332.724 679.141 329.407 680.547 326.493 683.46C323.58 686.374 322.174 689.691 323.354 690.871C324.533 692.05 327.851 690.645 330.764 687.731Z" stroke="#00184D" stroke-miterlimit="10"/>
<path d="M325.24 690.875C326.42 689.695 325.014 686.377 322.101 683.464C319.187 680.551 315.87 679.145 314.69 680.325C313.511 681.504 314.916 684.822 317.83 687.735C320.743 690.648 324.061 692.054 325.24 690.875Z" stroke="#00184D" stroke-miterlimit="10"/>
<path d="M341.85 711.85H305.37" stroke="#00184D" stroke-miterlimit="10"/>
<path d="M382.23 33.7798C382.23 33.7798 352.78 28.1998 338.08 15.3298" stroke="#ACD2ED" stroke-linecap="round" stroke-linejoin="round"/>
<path d="M382.34 33.78C373.593 30.9056 365.133 27.223 357.07 22.78" stroke="#ACD2ED" stroke-linecap="round" stroke-linejoin="round"/>
<path d="M335.62 28.27C333.685 29.4765 332.087 31.1524 330.973 33.1419C329.86 35.1314 329.267 37.3701 329.25 39.65" stroke="#ACD2ED" stroke-linecap="round" stroke-linejoin="round"/>
<path d="M348.1 3.64004C348.1 3.64004 358.38 1.09004 365 6.72004" stroke="#ACD2ED" stroke-linecap="round" stroke-linejoin="round"/>
<path d="M267.74 141.8C269.176 141.8 270.34 140.636 270.34 139.2C270.34 137.764 269.176 136.6 267.74 136.6C266.304 136.6 265.14 137.764 265.14 139.2C265.14 140.636 266.304 141.8 267.74 141.8Z" stroke="#ACD2ED" stroke-miterlimit="10"/>
<path d="M305.37 664.22H328.01" stroke="#ACD2ED" stroke-miterlimit="10"/>
<path d="M380.21 664.22H402.85" stroke="#ACD2ED" stroke-miterlimit="10"/>
<path d="M349.5 128.37C349.5 128.37 356.5 133.31 367.01 128.37" stroke="#00184D" stroke-linecap="round" stroke-linejoin="round"/>
<path d="M345.34 287.64H370.74" stroke="#00184D" stroke-linecap="round" stroke-linejoin="round"/>
<path fill-rule="evenodd" clip-rule="evenodd" d="M388.93 54.0599C388.72 53.9599 383.69 51.6899 374.64 51.6899C371.203 51.6349 367.78 52.1312 364.5 53.1599C360.35 54.5467 355.861 54.5467 351.71 53.1599C348.43 52.1312 345.007 51.6349 341.57 51.6899C332.52 51.6899 327.49 53.9599 327.28 54.0599C327.149 54.1189 327.036 54.2123 326.953 54.3303C326.87 54.4482 326.821 54.5863 326.81 54.7299L326.54 58.6099C326.531 58.7811 326.576 58.9508 326.67 59.0946C326.763 59.2384 326.9 59.3488 327.06 59.4099C327.361 59.5232 327.634 59.7006 327.86 59.9299C327.91 60.0699 327.99 60.4999 328.12 61.1099C328.632 63.8585 329.334 66.5683 330.22 69.2199C330.56 70.4159 331.181 71.513 332.032 72.4195C332.883 73.326 333.938 74.0154 335.11 74.4299C337.167 75.1936 339.347 75.57 341.54 75.5399C343.677 75.5738 345.799 75.1794 347.78 74.3799C352.37 72.3799 353.47 69.3799 354.87 65.5899L355.41 64.0599C356.41 61.2699 356.57 60.9099 358.1 60.9099C359.63 60.9099 359.83 61.2699 360.8 64.0599C360.96 64.5199 361.13 65.0599 361.34 65.5899C362.73 69.3999 363.83 72.3999 368.43 74.3799C370.411 75.1812 372.533 75.5757 374.67 75.5399C376.864 75.57 379.044 75.1936 381.1 74.4299C382.275 74.0174 383.333 73.3289 384.185 72.4222C385.038 71.5156 385.66 70.4173 386 69.2199C386.887 66.5787 387.589 63.8788 388.1 61.1399C388.23 60.5199 388.32 60.0799 388.36 59.9499C388.586 59.7114 388.863 59.5269 389.17 59.4099C389.329 59.3484 389.465 59.2376 389.557 59.0937C389.648 58.9497 389.692 58.7802 389.68 58.6099L389.42 54.7299C389.409 54.5863 389.36 54.4482 389.277 54.3303C389.195 54.2123 389.082 54.1189 388.95 54.0599H388.93ZM350.24 67.8199C348.8 70.8199 345.77 72.3199 341.24 72.3199C337.62 72.3199 335.39 71.4999 334.03 69.6799C332.67 67.8599 331.12 60.3299 332.16 57.9899C333.2 55.6499 337.76 54.9899 341.75 54.9899C345.94 54.9899 350.91 55.8499 351.93 57.7399C352.95 59.6299 352.34 63.4599 350.23 67.8499L350.24 67.8199ZM382.17 69.6699C380.81 71.4999 378.58 72.3199 374.95 72.3199C370.43 72.3199 367.41 70.7999 365.95 67.8199C363.84 63.4299 363.21 59.6599 364.25 57.7099C365.29 55.7599 370.25 54.9599 374.43 54.9599C378.43 54.9599 383.02 55.7599 384.02 57.9599C385.02 60.1599 383.47 67.8699 382.15 69.6399L382.17 69.6699Z" fill="#00184D"/>
<path d="M329.1 56.7399C329.685 56.7399 330.16 56.2653 330.16 55.6799C330.16 55.0945 329.685 54.6199 329.1 54.6199C328.515 54.6199 328.04 55.0945 328.04 55.6799C328.04 56.2653 328.515 56.7399 329.1 56.7399Z" fill="white"/>
<path d="M387.1 56.7399C387.685 56.7399 388.16 56.2653 388.16 55.6799C388.16 55.0945 387.685 54.6199 387.1 54.6199C386.515 54.6199 386.04 55.0945 386.04 55.6799C386.04 56.2653 386.515 56.7399 387.1 56.7399Z" fill="white"/>
<path d="M373.99 202.96L383.15 166.05L391.3 157.9L373.99 107.38" stroke="#ACD2ED" stroke-linecap="round" stroke-linejoin="round"/>
<path d="M304.64 300.93H335.56" stroke="#ACD2ED" stroke-linecap="round" stroke-linejoin="round"/>
<path d="M381.13 300.93H387.81" stroke="#ACD2ED" stroke-linecap="round" stroke-linejoin="round"/>
<path d="M313.58 671.18L335.57 676.58L336.6 669.99L313.58 671.18Z" fill="#00184D"/>
<path d="M380.21 669L380.99 676.58L403.75 669.99L380.21 669Z" fill="#00184D"/>
<path d="M308.5 709.55H331.46" stroke="#E9F0F6" stroke-miterlimit="10"/>
<path d="M384.72 709.55H407.68" stroke="#E9F0F6" stroke-miterlimit="10"/>
<path d="M638.14 442.37L713.26 517.49" stroke="#00184D" stroke-miterlimit="10"/>
<path d="M713.61 368.28L743.14 338.75" stroke="#00184D" stroke-miterlimit="10"/>
</g>
<defs>
<clipPath id="clip0_1938_11190">
<rect width="859" height="720" fill="white"/>
</clipPath>
</defs>
</svg>
