<svg width="200" height="160" viewBox="0 0 200 160" fill="none" xmlns="http://www.w3.org/2000/svg">
<path d="M113.988 38.6824L68.9974 47.7214C67.527 48.0169 66.5744 49.4483 66.8699 50.9187L79.4496 113.533C79.745 115.003 81.1765 115.956 82.6469 115.66L127.638 106.621C129.108 106.326 130.061 104.895 129.765 103.424L117.186 40.8099C116.89 39.3395 115.459 38.387 113.988 38.6824Z" fill="#ABD1EB"/>
<path d="M73.6025 104.551L68.5016 103.333C67.3273 103.052 66.6055 101.878 66.8808 100.703L81.3395 40.1163C81.6208 38.942 82.7951 38.2203 83.9695 38.4955L127.737 48.942C128.911 49.2233 129.633 50.3977 129.358 51.572L126.691 62.7463" stroke="#5392BD" stroke-width="0.366972" stroke-miterlimit="10"/>
<path d="M117.358 43.8469H77.37C76.1651 43.8469 75.1865 44.8255 75.1865 46.0304V108.318C75.1865 109.523 76.1651 110.501 77.37 110.501H122.367C123.572 110.501 124.55 109.523 124.55 108.318V51.0396L117.352 43.8408L117.358 43.8469Z" fill="#1A1E4A" stroke="#1A1E4A" stroke-width="0.366972" stroke-linecap="round" stroke-linejoin="round"/>
<path d="M124.544 51.8653H119.541C118.336 51.8653 117.357 50.8867 117.357 49.6818V44.6787L124.544 51.8653Z" fill="#1A1E4A" stroke="#1A1E4A" stroke-width="0.366972" stroke-linecap="round" stroke-linejoin="round"/>
<path d="M124.55 51.0393H119.541C118.336 51.0393 117.357 50.0607 117.357 48.8559V43.8467L124.556 51.0455L124.55 51.0393Z" fill="#1A1E4A" stroke="#1A1E4A" stroke-width="0.366972" stroke-linecap="round" stroke-linejoin="round"/>
<path d="M117.358 42.8132H77.37C76.1651 42.8132 75.1865 43.7918 75.1865 44.9967V107.284C75.1865 108.489 76.1651 109.468 77.37 109.468H122.367C123.572 109.468 124.55 108.489 124.55 107.284V50.0059L117.352 42.8071L117.358 42.8132Z" fill="white" stroke="#1A1E4A" stroke-width="0.366972" stroke-linecap="round" stroke-linejoin="round"/>
<path d="M124.544 50.8316H119.541C118.336 50.8316 117.357 49.853 117.357 48.6481V43.645L124.513 49.9692L124.544 50.8316Z" fill="#1A1E4A" stroke="#1A1E4A" stroke-width="0.366972" stroke-linecap="round" stroke-linejoin="round"/>
<path d="M124.55 50.0061H119.541C118.336 50.0061 117.357 49.0275 117.357 47.8227V42.8135L124.556 50.0123L124.55 50.0061Z" fill="white" stroke="#1A1E4A" stroke-width="0.366972" stroke-linecap="round" stroke-linejoin="round"/>
<path d="M81.1074 70.4585H118.63" stroke="#1A1E4A" stroke-width="0.366972" stroke-linecap="round" stroke-linejoin="round"/>
<path d="M108.055 75.9326H118.63" stroke="#1A1E4A" stroke-width="0.366972" stroke-linecap="round" stroke-linejoin="round"/>
<path d="M81.1074 75.9326H101.224" stroke="#1A1E4A" stroke-width="0.366972" stroke-linecap="round" stroke-linejoin="round"/>
<path d="M81.1074 81.4004H118.63" stroke="#1A1E4A" stroke-width="0.366972" stroke-linecap="round" stroke-linejoin="round"/>
<path d="M97.8047 86.8745H118.63" stroke="#1A1E4A" stroke-width="0.366972" stroke-linecap="round" stroke-linejoin="round"/>
<path d="M81.1074 86.8745H90.9729" stroke="#1A1E4A" stroke-width="0.366972" stroke-linecap="round" stroke-linejoin="round"/>
<path d="M81.1074 92.3486H104.202" stroke="#1A1E4A" stroke-width="0.366972" stroke-linecap="round" stroke-linejoin="round"/>
<path d="M118.63 61.8777V64.1652H81.1074V57.3823H92.6548" stroke="#1A1E4A" stroke-width="0.366972" stroke-linecap="round" stroke-linejoin="round"/>
<path d="M95.7188 57.3823H99.89" stroke="#1A1E4A" stroke-width="0.366972" stroke-linecap="round" stroke-linejoin="round"/>
<path d="M102.557 57.3823H104.642" stroke="#1A1E4A" stroke-width="0.366972" stroke-linecap="round" stroke-linejoin="round"/>
<path d="M118.618 57.8594V59.945" stroke="#1A1E4A" stroke-width="0.366972" stroke-linecap="round" stroke-linejoin="round"/>
<path d="M99.9873 17.5781V25.8105" stroke="#1A1E4A" stroke-width="0.366972" stroke-linecap="round" stroke-linejoin="round"/>
<path d="M97.9141 24.0488L99.9875 26.1956L102.067 24.0488" stroke="#1A1E4A" stroke-width="0.366972" stroke-linecap="round" stroke-linejoin="round"/>
<path d="M63.5898 29.4131L68.4278 36.0736" stroke="#1A1E4A" stroke-width="0.366972" stroke-linecap="round" stroke-linejoin="round"/>
<path d="M65.7119 35.8657L68.6538 36.3855L69.0697 33.4253" stroke="#1A1E4A" stroke-width="0.366972" stroke-linecap="round" stroke-linejoin="round"/>
<path d="M41.0947 60.3794L48.9235 62.9237" stroke="#1A1E4A" stroke-width="0.366972" stroke-linecap="round" stroke-linejoin="round"/>
<path d="M46.6055 64.3549L49.2966 63.046L47.8899 60.4038" stroke="#1A1E4A" stroke-width="0.366972" stroke-linecap="round" stroke-linejoin="round"/>
<path d="M41.1006 98.6606L48.9293 96.1162" stroke="#1A1E4A" stroke-width="0.366972" stroke-linecap="round" stroke-linejoin="round"/>
<path d="M47.8957 98.6361L49.3025 95.9939L46.6113 94.6851" stroke="#1A1E4A" stroke-width="0.366972" stroke-linecap="round" stroke-linejoin="round"/>
<path d="M63.6025 129.621L68.4466 122.96" stroke="#1A1E4A" stroke-width="0.366972" stroke-linecap="round" stroke-linejoin="round"/>
<path d="M69.0892 125.609L68.6733 122.648L65.7314 123.168" stroke="#1A1E4A" stroke-width="0.366972" stroke-linecap="round" stroke-linejoin="round"/>
<path d="M100.012 141.443V133.211" stroke="#1A1E4A" stroke-width="0.366972" stroke-linecap="round" stroke-linejoin="round"/>
<path d="M102.086 134.972L100.012 132.826L97.9326 134.972" stroke="#1A1E4A" stroke-width="0.366972" stroke-linecap="round" stroke-linejoin="round"/>
<path d="M136.41 129.609L131.572 122.948" stroke="#1A1E4A" stroke-width="0.366972" stroke-linecap="round" stroke-linejoin="round"/>
<path d="M134.287 123.156L131.346 122.636L130.93 125.596" stroke="#1A1E4A" stroke-width="0.366972" stroke-linecap="round" stroke-linejoin="round"/>
<path d="M158.905 98.642L151.076 96.0977" stroke="#1A1E4A" stroke-width="0.366972" stroke-linecap="round" stroke-linejoin="round"/>
<path d="M153.394 94.6665L150.703 95.9754L152.11 98.6176" stroke="#1A1E4A" stroke-width="0.366972" stroke-linecap="round" stroke-linejoin="round"/>
<path d="M158.899 60.3608L151.07 62.9052" stroke="#1A1E4A" stroke-width="0.366972" stroke-linecap="round" stroke-linejoin="round"/>
<path d="M152.104 60.3853L150.697 63.0275L153.388 64.3363" stroke="#1A1E4A" stroke-width="0.366972" stroke-linecap="round" stroke-linejoin="round"/>
<path d="M136.398 29.4004L131.554 36.0609" stroke="#1A1E4A" stroke-width="0.366972" stroke-linecap="round" stroke-linejoin="round"/>
<path d="M130.911 33.4126L131.327 36.3728L134.269 35.853" stroke="#1A1E4A" stroke-width="0.366972" stroke-linecap="round" stroke-linejoin="round"/>
<path d="M125.174 120.636C132.734 120.636 138.862 114.508 138.862 106.948C138.862 99.3881 132.734 93.2598 125.174 93.2598C117.615 93.2598 111.486 99.3881 111.486 106.948C111.486 114.508 117.615 120.636 125.174 120.636Z" fill="white"/>
<path d="M125.174 117.254C130.866 117.254 135.48 112.64 135.48 106.948C135.48 101.256 130.866 96.6421 125.174 96.6421C119.482 96.6421 114.868 101.256 114.868 106.948C114.868 112.64 119.482 117.254 125.174 117.254Z" fill="#1964AF" stroke="#1A1E4A" stroke-width="0.366972" stroke-miterlimit="10"/>
<path d="M119.175 107.095L123.077 110.997L131.169 102.899" stroke="white" stroke-width="0.366972" stroke-linecap="round" stroke-linejoin="round"/>
</svg>
