<svg width="266" height="222" viewBox="0 0 266 222" fill="none" xmlns="http://www.w3.org/2000/svg">
<g clip-path="url(#clip0_1161_156845)">
<path d="M144.442 86.4697H265.5V221.75H132.486V102.18C132.487 98.0143 133.746 94.019 135.988 91.0728C138.23 88.1267 141.271 86.471 144.442 86.4697Z" fill="#E9F0F6"/>
<path opacity="0.4" d="M35.483 35.2354H172.472V221.729H23.1286V51.4651C23.1291 47.1605 24.4309 43.0324 26.7478 39.9888C29.0646 36.9452 32.2067 35.2354 35.483 35.2354Z" fill="#5493BD"/>
<path opacity="0.4" d="M172.344 35.2383H132.486V221.729H172.344V35.2383Z" fill="white"/>
<path d="M0.590607 221.729H265.5" stroke="#002677" stroke-miterlimit="10"/>
<path opacity="0.1" d="M133.639 133.49H92.9388V217.984H133.639V133.49Z" fill="white"/>
<path d="M248.505 35.2334H221.346V107.968H248.505V35.2334Z" fill="white" stroke="#00184D" stroke-miterlimit="10"/>
<path d="M221.345 35.2334H194.186V107.968H221.345V35.2334Z" fill="white" stroke="#00184D" stroke-miterlimit="10"/>
<path d="M217.9 103.294H197.632V39.9062H217.9V103.294Z" fill="white" stroke="#00184D" stroke-miterlimit="10"/>
<path d="M245.06 103.294H224.791V39.9062H245.06V103.294Z" fill="white" stroke="#00184D" stroke-miterlimit="10"/>
<path d="M215.287 73.2062C215.962 73.2062 216.51 72.4867 216.51 71.5992C216.51 70.7117 215.962 69.9922 215.287 69.9922C214.611 69.9922 214.064 70.7117 214.064 71.5992C214.064 72.4867 214.611 73.2062 215.287 73.2062Z" fill="white" stroke="#00184D" stroke-miterlimit="10"/>
<path d="M227.404 73.2062C228.079 73.2062 228.627 72.4867 228.627 71.5992C228.627 70.7117 228.079 69.9922 227.404 69.9922C226.728 69.9922 226.181 70.7117 226.181 71.5992C226.181 72.4867 226.728 73.2062 227.404 73.2062Z" fill="white" stroke="#00184D" stroke-miterlimit="10"/>
<path d="M45.3966 162.859H0.590607V221.729H45.3966V162.859Z" fill="white" stroke="#00184D" stroke-linecap="round" stroke-linejoin="round"/>
<path d="M43.1316 166.313H2.85745V182.5H43.1316V166.313Z" fill="white" stroke="#00184D" stroke-miterlimit="10"/>
<path d="M43.1316 187.636H2.85745V203.823H43.1316V187.636Z" fill="white" stroke="#00184D" stroke-miterlimit="10"/>
<path d="M29.1536 173.473H16.8336C16.4413 173.473 16.1233 173.89 16.1233 174.406C16.1233 174.921 16.4413 175.339 16.8336 175.339H29.1536C29.5459 175.339 29.8639 174.921 29.8639 174.406C29.8639 173.89 29.5459 173.473 29.1536 173.473Z" fill="white" stroke="#00184D" stroke-miterlimit="10"/>
<path d="M29.1536 194.795H16.8336C16.4413 194.795 16.1233 195.213 16.1233 195.728C16.1233 196.244 16.4413 196.661 16.8336 196.661H29.1536C29.5459 196.661 29.8639 196.244 29.8639 195.728C29.8639 195.213 29.5459 194.795 29.1536 194.795Z" fill="white" stroke="#00184D" stroke-miterlimit="10"/>
<path d="M73.1949 166.305H104.288C105.641 166.305 106.939 167.011 107.896 168.268C108.853 169.526 109.39 171.231 109.39 173.009H73.1949V166.305Z" fill="#0075C9" stroke="#00184D" stroke-miterlimit="10"/>
<path d="M73.5628 171.487H109.258" stroke="#00184D" stroke-linecap="round" stroke-linejoin="round"/>
<path d="M105.692 173.011H70.707V176.272H105.692V173.011Z" fill="white" stroke="#00184D" stroke-miterlimit="10"/>
<path d="M59.3692 221.729L80.7855 145.927L76.2319 144.075L55.2939 221.729H59.3692Z" fill="white" stroke="#00184D" stroke-miterlimit="10"/>
<path d="M110.356 221.729L106.801 150.539L61.5726 129.564V138.128L102.711 155.017L106.042 221.729H110.356Z" fill="white" stroke="#00184D" stroke-linecap="round" stroke-linejoin="round"/>
<path d="M76.2319 144.225L75.7426 146.034L80.4883 147.132L80.7855 146.077L76.2319 144.225Z" fill="#00184D"/>
<path d="M231.633 173.011H195.438C195.438 172.13 195.57 171.259 195.826 170.445C196.083 169.632 196.459 168.893 196.932 168.27C197.406 167.648 197.969 167.154 198.588 166.817C199.207 166.48 199.871 166.306 200.541 166.306H231.633V173.011Z" fill="#0075C9" stroke="#00184D" stroke-miterlimit="10"/>
<path d="M195.688 171.487H231.383" stroke="#00184D" stroke-linecap="round" stroke-linejoin="round"/>
<path d="M199.138 176.271H234.123V173.009H199.138V176.271Z" fill="white" stroke="#00184D" stroke-miterlimit="10"/>
<path d="M245.461 221.729L224.043 145.927L228.598 144.075L249.534 221.729H245.461Z" fill="white" stroke="#00184D" stroke-miterlimit="10"/>
<path d="M194.474 221.729L198.027 150.539L243.256 129.564V138.128L202.117 155.017L198.787 221.729H194.474Z" fill="white" stroke="#00184D" stroke-linecap="round" stroke-linejoin="round"/>
<path d="M228.598 144.225L229.085 146.034L224.342 147.132L224.043 146.077L228.598 144.225Z" fill="#00184D"/>
<path d="M114.482 148.779V151.589V154.396V221.881H117.399L119.452 154.396H185.378L187.431 221.881H190.346V154.396V151.589V148.779H114.482Z" fill="white" stroke="#00184D" stroke-miterlimit="10"/>
<path d="M114.484 152.182H190.346" stroke="#00184D" stroke-linecap="round" stroke-linejoin="round"/>
<path opacity="0.6" d="M152.018 53.4648C154.31 53.4651 156.58 52.8722 158.698 51.7199C160.816 50.5677 162.74 48.8786 164.361 46.7491C165.982 44.6197 167.267 42.0916 168.145 39.3093C169.022 36.527 169.473 33.5448 169.473 30.5332H134.563C134.563 33.5448 135.014 36.527 135.892 39.3093C136.769 42.0916 138.055 44.6197 139.676 46.7491C141.296 48.8786 143.221 50.5677 145.338 51.7199C147.456 52.8722 149.726 53.4651 152.018 53.4648Z" fill="white"/>
<path d="M152.415 43.7661C156.537 43.7661 159.879 39.3757 159.879 33.9597C159.879 28.5438 156.537 24.1533 152.415 24.1533C148.293 24.1533 144.951 28.5438 144.951 33.9597C144.951 39.3757 148.293 43.7661 152.415 43.7661Z" fill="white"/>
<path d="M171.193 30.1239C170.957 29.0743 170.543 28.1086 169.982 27.2992C169.421 26.4898 168.728 25.8577 167.955 25.4505L159.007 20.7318C158.237 20.3255 157.566 19.649 157.069 18.7761C156.571 17.9033 156.266 16.8676 156.186 15.7821L155.497 3.67591C155.423 2.66976 155.066 1.73611 154.496 1.05665C153.926 0.377196 153.184 0.000546045 152.415 0V0C151.646 0.000600961 150.904 0.377332 150.335 1.05683C149.765 1.73634 149.409 2.66996 149.335 3.67591L148.646 15.7821C148.566 16.8676 148.26 17.9033 147.763 18.7761C147.265 19.649 146.595 20.3255 145.825 20.7318L136.873 25.4505C136.1 25.8582 135.408 26.4904 134.847 27.2998C134.287 28.1091 133.873 29.0746 133.637 30.1239L132.486 35.2355H172.351L171.193 30.1239Z" fill="#0075C9"/>
<path d="M135.529 33.1836H169.299" stroke="#002677" stroke-linecap="round" stroke-linejoin="round"/>
</g>
<defs>
<clipPath id="clip0_1161_156845">
<rect width="265" height="222" fill="white" transform="translate(0.5)"/>
</clipPath>
</defs>
</svg>
