<svg width="322" height="206" viewBox="0 0 322 206" fill="none" xmlns="http://www.w3.org/2000/svg">
<g clip-path="url(#clip0_2074_149892)">
<path opacity="0.5" d="M321.999 90.6955L206.98 26.6702L91.9818 90.6955L92.066 90.7376L0 141.975L115.019 206L230.018 141.975L229.954 141.933L321.999 90.6955Z" fill="#E9F0F6"/>
<path opacity="0.5" d="M82.3455 114.968L83.2291 115.41L17.7983 151.839L98.7137 196.935L180.471 151.419L180.408 151.398L82.3455 114.968Z" fill="#ACD2ED"/>
<path opacity="0.7" d="M118.652 141.937C118.779 138.942 111.908 136.22 103.306 135.857C94.7037 135.493 87.6276 137.626 87.501 140.62C87.3744 143.614 94.2452 146.336 102.847 146.7C111.45 147.064 118.526 144.931 118.652 141.937Z" fill="#ACD2ED"/>
<path d="M159.033 163.344L78.3284 118.417L159.033 73.4902L239.738 118.417L159.033 163.344Z" fill="#E9F0F6"/>
<path d="M159.033 89.8542L78.3284 44.9271L159.033 0L239.738 44.9271L159.033 89.8542Z" fill="#E9F0F6"/>
<path d="M159.033 0L78.3284 44.9271L159.033 89.8542V0Z" fill="#C1D6E5"/>
<path d="M159.033 0L78.3284 44.9271L159.033 89.8542V0Z" fill="url(#paint0_linear_2074_149892)"/>
<path d="M159.032 89.8543V163.345L239.737 118.418V44.9272L159.032 89.8543Z" fill="white"/>
<path d="M78.3284 44.9272V118.418L159.033 163.345V89.8543L78.3284 44.9272Z" fill="#C1D6E5"/>
<path d="M78.3284 44.9272L159.033 89.8543" stroke="#002677" stroke-width="0.213154" stroke-miterlimit="10" stroke-linecap="round" stroke-linejoin="round"/>
<path d="M103.09 60.2815L103.953 58.5147C104.079 58.2413 104.352 58.094 104.647 58.094H106.583C107.193 58.094 107.719 58.5567 107.761 59.1877L108.097 61.4804L105.846 60.3025V60.9335L103.09 60.2815Z" fill="#5493BD" stroke="#002677" stroke-width="0.213154" stroke-miterlimit="10" stroke-linecap="round" stroke-linejoin="round"/>
<path d="M98.5879 125.632H95.937V133.814H98.5879V125.632Z" fill="#F2A900"/>
<path d="M108.603 131.605H105.952V139.787H108.603V131.605Z" fill="#F2A900"/>
<path d="M104.794 84.3645L95.1372 83.3969L95.8946 107.964L95.3476 129.376L99.1556 129.313L104.794 84.3645Z" fill="#00184D"/>
<path d="M96.9257 54.2867C96.9257 54.3708 96.8416 54.476 96.8416 54.5601C96.8416 54.6442 96.9257 54.7284 96.9467 54.8335C96.9467 54.9177 96.8836 55.0229 96.9047 55.128C96.9257 55.2122 97.0098 55.2963 97.0309 55.3804C97.0519 55.4646 96.9888 55.5907 97.0099 55.6749C97.0309 55.759 97.1361 55.8221 97.1571 55.9273C97.1782 56.0114 97.1361 56.1376 97.1781 56.2218C97.2202 56.3059 97.3254 56.369 97.3675 56.4531C97.4096 56.5372 97.3675 56.6635 97.4096 56.7476C97.4517 56.8317 97.5779 56.8738 97.62 56.9579C97.6621 57.0421 97.641 57.1683 97.7041 57.2314C97.7462 57.3155 97.8724 57.3365 97.9356 57.4206C97.9987 57.5048 97.9776 57.61 98.0408 57.6941C98.1039 57.7572 98.2301 57.7782 98.2932 57.8413C98.3563 57.9044 98.3563 58.0306 98.4195 58.0937C98.4826 58.1568 98.6088 58.1568 98.6719 58.2199C98.735 58.283 98.7561 58.4092 98.8192 58.4723C98.8823 58.5354 99.0085 58.5144 99.0927 58.5775C99.1769 58.6406 99.1979 58.7458 99.282 58.8089C99.3662 58.8509 99.4714 58.8299 99.5555 58.893C99.6397 58.935 99.6818 59.0612 99.7659 59.1033C99.8501 59.1454 99.9763 59.1033 100.061 59.1454C100.145 59.1874 100.208 59.2926 100.292 59.3347C100.376 59.3768 100.502 59.3136 100.586 59.3557C100.671 59.3767 100.734 59.4819 100.839 59.5029C100.923 59.524 101.028 59.4609 101.133 59.4819C101.218 59.5029 101.302 59.6081 101.386 59.6081C101.47 59.6291 101.575 59.545 101.68 59.566C101.765 59.566 101.849 59.6712 101.954 59.6712C102.038 59.6712 102.143 59.5871 102.227 59.5871C102.312 59.5871 102.417 59.6712 102.501 59.6712C102.585 59.6712 102.669 59.5871 102.774 59.566C102.859 59.566 102.964 59.6291 103.069 59.6081C103.153 59.5871 103.237 59.5029 103.322 59.4819C103.406 59.4609 103.511 59.524 103.616 59.5029C103.7 59.4819 103.763 59.3767 103.869 59.3557C103.953 59.3347 104.079 59.3768 104.163 59.3347C104.247 59.2926 104.31 59.1874 104.394 59.1454C104.479 59.1033 104.605 59.1454 104.689 59.1033C104.773 59.0612 104.815 58.935 104.899 58.893C104.984 58.8509 105.11 58.872 105.173 58.8089C105.257 58.7668 105.278 58.6406 105.362 58.5775C105.446 58.5144 105.552 58.5354 105.636 58.4723C105.699 58.4092 105.72 58.283 105.783 58.2199C105.846 58.1568 105.972 58.1568 106.036 58.0937C106.099 58.0306 106.099 57.9044 106.162 57.8413C106.225 57.7782 106.351 57.7572 106.414 57.6941C106.477 57.631 106.456 57.5048 106.519 57.4206C106.583 57.3365 106.688 57.3155 106.751 57.2314C106.793 57.1472 106.772 57.0421 106.835 56.9579C106.877 56.8738 107.003 56.8317 107.045 56.7476C107.087 56.6635 107.045 56.5372 107.087 56.4531C107.13 56.369 107.235 56.3059 107.277 56.2218C107.319 56.1376 107.256 56.0114 107.298 55.9273C107.319 55.8431 107.424 55.78 107.445 55.6749C107.466 55.5907 107.403 55.4856 107.424 55.3804C107.445 55.2963 107.55 55.2122 107.55 55.128C107.571 55.0439 107.487 54.9387 107.508 54.8335C107.508 54.7494 107.613 54.6653 107.613 54.5601C107.613 54.476 107.529 54.3708 107.529 54.2867C107.529 54.2026 107.613 54.0974 107.613 54.0133C107.613 53.9291 107.529 53.845 107.508 53.7398C107.508 53.6557 107.571 53.5505 107.55 53.4454C107.529 53.3612 107.445 53.2771 107.424 53.1929C107.403 53.1088 107.466 53.0037 107.445 52.8985C107.424 52.8144 107.319 52.7513 107.298 52.6461C107.277 52.562 107.319 52.4357 107.277 52.3516C107.235 52.2675 107.13 52.2044 107.087 52.1203C107.045 52.0361 107.087 51.9099 107.045 51.8258C107.003 51.7416 106.877 51.6996 106.835 51.6154C106.793 51.5313 106.814 51.4051 106.751 51.342C106.709 51.2579 106.583 51.2368 106.519 51.1527C106.456 51.0686 106.477 50.9634 106.414 50.8793C106.351 50.8162 106.225 50.7951 106.162 50.732C106.099 50.6689 106.099 50.5428 106.036 50.4797C105.972 50.4166 105.846 50.4165 105.783 50.3534C105.72 50.2903 105.699 50.1641 105.636 50.101C105.573 50.0379 105.446 50.059 105.362 49.9959C105.278 49.9328 105.257 49.8276 105.173 49.7645C105.089 49.7225 104.984 49.7435 104.899 49.6804C104.815 49.6383 104.773 49.5121 104.689 49.47C104.605 49.428 104.479 49.4701 104.394 49.428C104.31 49.3859 104.247 49.2808 104.163 49.2387C104.079 49.1966 103.953 49.2597 103.869 49.2177C103.784 49.1966 103.721 49.0915 103.616 49.0704C103.532 49.0494 103.427 49.1125 103.322 49.0914C103.237 49.0704 103.153 48.9653 103.069 48.9653C102.985 48.9442 102.88 49.0284 102.774 49.0073C102.69 49.0073 102.606 48.9022 102.501 48.9022C102.417 48.9022 102.312 48.9863 102.227 48.9863C102.143 48.9863 102.038 48.9022 101.954 48.9022C101.87 48.9022 101.786 48.9863 101.68 49.0073C101.596 49.0073 101.491 48.9442 101.386 48.9653C101.302 48.9863 101.218 49.0704 101.133 49.0914C101.049 49.1125 100.944 49.0494 100.839 49.0704C100.755 49.0915 100.692 49.1966 100.586 49.2177C100.502 49.2387 100.376 49.1966 100.292 49.2387C100.208 49.2808 100.145 49.3859 100.061 49.428C99.9763 49.4701 99.8501 49.428 99.7659 49.47C99.6818 49.5121 99.6397 49.6383 99.5555 49.6804C99.4714 49.7224 99.3451 49.7014 99.282 49.7645C99.1979 49.8066 99.1769 49.9328 99.0927 49.9959C99.0085 50.059 98.9033 50.0379 98.8192 50.101C98.7561 50.1641 98.735 50.2903 98.6719 50.3534C98.6088 50.4165 98.4826 50.4166 98.4195 50.4797C98.3563 50.5428 98.3563 50.6689 98.2932 50.732C98.2301 50.7951 98.1039 50.8162 98.0408 50.8793C97.9776 50.9424 97.9987 51.0686 97.9356 51.1527C97.8724 51.2368 97.7672 51.2579 97.7041 51.342C97.662 51.4262 97.6831 51.5313 97.62 51.6154C97.5779 51.6996 97.4517 51.7416 97.4096 51.8258C97.3675 51.9099 97.4096 52.0361 97.3675 52.1203C97.3254 52.2044 97.2202 52.2675 97.1781 52.3516C97.1361 52.4357 97.1992 52.562 97.1571 52.6461C97.1361 52.7302 97.0309 52.7933 97.0099 52.8985C96.9888 52.9826 97.0519 53.0878 97.0309 53.1929C97.0098 53.2771 96.9047 53.3612 96.9047 53.4454C96.8836 53.5295 96.9678 53.6347 96.9467 53.7398C96.9467 53.824 96.8416 53.9081 96.8416 54.0133C96.8416 54.1184 96.9257 54.2026 96.9257 54.2867Z" fill="#002677"/>
<path d="M107.508 56.5167C107.508 56.5167 108.202 56.7691 108.202 57.0004C108.202 57.2739 107.97 57.4632 107.697 57.4422L107.171 57.379" fill="white"/>
<path d="M107.508 56.5167C107.508 56.5167 108.202 56.7691 108.202 57.0004C108.202 57.2739 107.97 57.4632 107.697 57.4422L107.171 57.379" stroke="#002677" stroke-width="0.213154" stroke-miterlimit="10" stroke-linecap="round" stroke-linejoin="round"/>
<path d="M106.561 53.3829L103.342 60.1345L102.08 59.7349L100.67 57.0006L100.312 53.0463L105.783 52.3312C106.372 52.2471 106.813 52.857 106.561 53.3829Z" fill="white"/>
<path d="M100.187 54.9185V61.0812C100.187 62.0277 100.944 63.3948 101.891 63.3948C102.838 63.3948 103.595 62.869 103.595 61.9225V61.2705" fill="white"/>
<path d="M100.187 54.9185V61.0812C100.187 62.0277 100.944 63.3948 101.891 63.3948C102.838 63.3948 103.595 62.869 103.595 61.9225V61.2705" stroke="#002677" stroke-width="0.213154" stroke-miterlimit="10" stroke-linecap="round" stroke-linejoin="round"/>
<path d="M104.437 51.3636C106.204 51.3847 107.698 52.836 107.698 54.6238L107.34 55.7596L107.698 56.8323C107.698 57.7578 107.319 58.6832 106.877 59.5035C106.288 60.5762 105.699 61.4176 104.437 61.4386C103.595 61.4176 103.048 61.039 102.606 60.4711" fill="white"/>
<path d="M102.606 60.45C103.048 61.0179 103.595 61.4176 104.437 61.4176C105.699 61.3965 106.288 60.5552 106.877 59.4825C107.319 58.6622 107.698 57.7368 107.698 56.8113L107.34 55.7386L107.698 54.6028C107.698 53.9718 107.509 53.4039 107.214 52.8991" stroke="#002677" stroke-width="0.213154" stroke-miterlimit="10" stroke-linecap="round" stroke-linejoin="round"/>
<path d="M97.8517 83.3968L97.3678 85.416C97.0733 86.636 97.3678 87.94 98.1883 88.9075L100.524 91.6839L99.2823 83.3758H97.8517V83.3968Z" fill="#00184D"/>
<path d="M100.187 61.2278L107.32 62.4687C108.919 62.7421 109.55 64.1514 109.718 65.9392L109.739 85.6264L95.1592 83.3968L97.4945 78.5592L96.0849 64.4669C96.0849 64.3827 96.0849 64.3196 96.0849 64.2355C96.1901 62.2584 98.0836 60.8491 100.04 61.1857L100.187 61.2278Z" fill="#0075C9"/>
<path d="M106.814 76.3719L109.675 85.6265L109.717 78.1807L106.814 76.3719Z" fill="#00184D"/>
<path d="M100.187 61.2278L107.32 62.4688C108.919 62.7422 109.55 64.1514 109.718 65.9393L109.739 85.6264L95.1592 83.3969L97.4945 78.6855L96.0849 64.8876C96.0849 64.8035 96.0849 64.53 96.0849 64.4459C96.1901 62.5108 97.9363 61.0806 99.8719 61.2278H100.187Z" stroke="#00184D" stroke-width="0.213154" stroke-miterlimit="10" stroke-linecap="round" stroke-linejoin="round"/>
<path d="M109.675 85.6265L98.209 83.9228L103.111 107.859L105.909 135.686L109.717 134.15L109.675 85.6265Z" fill="#00184D"/>
<path d="M97.3461 85.4163C97.0515 86.6363 97.3461 87.9403 98.1666 88.9078L99.5762 90.5905L103.111 107.859L105.909 135.686" stroke="#0075C9" stroke-width="0.379412" stroke-miterlimit="10"/>
<path d="M100.187 56.6636V59.1456H101.197C101.996 59.1456 102.669 58.5567 102.795 57.7574L102.964 54.7917L103.616 54.6865L104.289 53.719C105.446 53.719 106.393 52.7725 106.393 51.6156V51.3633L103.721 50.2064L100.607 51.7419L99.7659 52.478V53.5086L100.187 56.6636Z" fill="#002677"/>
<path d="M115.693 66.5493L112.305 78.2438C112.074 79.1693 111.317 79.8844 110.37 80.0737C108.455 80.4313 106.877 78.5173 107.635 76.7084L112.936 65.9183L115.693 66.5493Z" fill="#0075C9"/>
<path d="M103.869 54.0555L107.109 53.0039C107.256 52.9618 107.298 52.7935 107.214 52.6673L106.394 51.6157L103.869 54.0555Z" fill="#002677"/>
<path d="M104.08 55.2964L105.342 54.6234C105.51 54.5393 105.636 54.3499 105.636 54.1396V52.3097L103.722 53.0669L104.08 55.2964Z" fill="#002677"/>
<path d="M110.664 79.9687C109.275 80.4524 107.74 79.7373 107.256 78.3281L104.584 66.928C104.1 65.5398 104.815 64.0044 106.225 63.5206C107.613 63.0369 109.149 63.752 109.633 65.1613L112.305 76.5613C112.789 77.9495 112.074 79.4639 110.664 79.9687Z" fill="#0075C9"/>
<path d="M105.931 71.7445L107.257 78.3279C107.635 79.3796 108.582 80.0526 109.634 80.1157C109.865 80.1368 110.118 80.1368 110.37 80.0947C111.17 79.9475 111.822 79.4217 112.159 78.6855C112.306 78.4121 112.39 78.1176 112.432 77.8021L115.693 66.5492L112.937 65.9182L110.833 70.2301L109.508 64.6562" stroke="#00184D" stroke-width="0.213154" stroke-miterlimit="10" stroke-linecap="round" stroke-linejoin="round"/>
<path d="M110.307 143.994L109.781 142.522L109.297 137.684C109.276 137.474 109.107 137.327 108.897 137.348C108.245 137.411 106.877 137.348 106.12 135.875C106.015 135.686 105.783 135.623 105.615 135.749L104.163 136.717L109.255 143.994" fill="#00184D"/>
<path d="M109.023 144.583L103.721 137.053L104.184 136.717L109.318 144.057" fill="#00184D"/>
<path d="M109.275 144.226L111.442 144.036C111.295 143.7 111.021 143.447 110.664 143.342L110.012 143.153" fill="#00184D"/>
<path d="M109.023 144.583H111.547L111.442 144.036L109.275 144.015" fill="#00184D"/>
<path d="M100.335 138.799L99.8088 137.327L99.3249 132.489C99.3039 132.279 99.1355 132.131 98.9251 132.152C98.2729 132.216 96.9054 132.152 96.148 130.68C96.0428 130.491 95.8114 130.428 95.6431 130.554L94.1914 131.521L99.2828 138.799" fill="#00184D"/>
<path d="M99.0516 139.388L93.7288 131.858L94.2127 131.521L99.3461 138.862" fill="#00184D"/>
<path d="M99.3044 139.03L101.471 138.841C101.324 138.504 101.051 138.252 100.693 138.147L100.041 137.957" fill="#00184D"/>
<path d="M99.052 139.388H101.577L101.471 138.841L99.3045 138.799" fill="#00184D"/>
<path d="M95.1381 83.3969L94.486 85.4161C94.1914 86.6361 94.486 87.9401 95.3065 88.9076L97.6418 91.684L96.4425 83.5862L95.1381 83.3969Z" fill="#00184D"/>
<path d="M112.895 65.9185L113.757 64.1517C113.883 63.8783 114.157 63.731 114.451 63.731H116.387C116.997 63.731 117.523 64.1938 117.565 64.8248L117.902 67.1174L115.651 65.9395V66.5705L112.895 65.9185Z" fill="white" stroke="#002677" stroke-width="0.213154" stroke-miterlimit="10" stroke-linecap="round" stroke-linejoin="round"/>
<path d="M110.453 68.6736L111.695 73.9108" stroke="#002677" stroke-width="0.213154" stroke-miterlimit="10" stroke-linecap="round" stroke-linejoin="round"/>
<path d="M94.5063 61.8169C94.5063 61.901 94.4221 62.0062 94.4221 62.0903C94.4221 62.1745 94.5063 62.2586 94.5273 62.3638C94.5273 62.4479 94.4642 62.5531 94.4852 62.6582C94.5063 62.7424 94.5904 62.8265 94.6114 62.9107C94.6325 62.9948 94.5694 63.121 94.5904 63.2051C94.6115 63.2892 94.7167 63.3523 94.7377 63.4575C94.7587 63.5416 94.7166 63.6679 94.7587 63.752C94.8008 63.8361 94.906 63.8992 94.9481 63.9833C94.9902 64.0675 94.9481 64.1937 94.9902 64.2778C95.0322 64.362 95.1585 64.404 95.2005 64.4882C95.2426 64.5723 95.2216 64.6985 95.2847 64.7616C95.3268 64.8457 95.453 64.8668 95.5161 64.9509C95.5792 65.035 95.5582 65.1402 95.6213 65.2243C95.6844 65.2874 95.8107 65.3085 95.8738 65.3716C95.9369 65.4347 95.9369 65.5608 96 65.6239C96.0631 65.687 96.1894 65.6871 96.2525 65.7502C96.3156 65.8133 96.3366 65.9395 96.3997 66.0026C96.4629 66.0657 96.5891 66.0446 96.6733 66.1077C96.7574 66.1708 96.7784 66.276 96.8626 66.3391C96.9467 66.3811 97.052 66.3601 97.1361 66.4232C97.2203 66.4653 97.2623 66.5915 97.3465 66.6336C97.4307 66.6756 97.5569 66.6335 97.6411 66.6756C97.7252 66.7177 97.7883 66.8228 97.8725 66.8649C97.9566 66.907 98.0829 66.8439 98.167 66.8859C98.2512 66.907 98.3143 67.0121 98.4195 67.0332C98.5037 67.0542 98.6088 66.9911 98.714 67.0122C98.7982 67.0332 98.8823 67.1383 98.9665 67.1383C99.0506 67.1594 99.1559 67.0752 99.2611 67.0963C99.3452 67.0963 99.4294 67.2014 99.5346 67.2014C99.6187 67.2014 99.7239 67.1173 99.808 67.1173C99.8922 67.1173 99.9974 67.2014 100.082 67.2014C100.166 67.2014 100.25 67.1173 100.355 67.0963C100.439 67.0963 100.544 67.1594 100.65 67.1383C100.734 67.1173 100.818 67.0332 100.902 67.0122C100.986 66.9911 101.112 67.0542 101.197 67.0332C101.281 67.0121 101.344 66.907 101.449 66.8859C101.533 66.8649 101.659 66.907 101.744 66.8649C101.828 66.8228 101.891 66.7177 101.975 66.6756C102.059 66.6335 102.185 66.6756 102.27 66.6336C102.354 66.5915 102.396 66.4653 102.48 66.4232C102.564 66.3812 102.69 66.4022 102.753 66.3391C102.838 66.297 102.859 66.1708 102.943 66.1077C103.027 66.0446 103.132 66.0657 103.216 66.0026C103.279 65.9395 103.301 65.8133 103.364 65.7502C103.427 65.6871 103.553 65.687 103.616 65.6239C103.679 65.5608 103.679 65.4347 103.742 65.3716C103.805 65.3085 103.932 65.2874 103.995 65.2243C104.058 65.1612 104.037 65.035 104.1 64.9509C104.163 64.8668 104.268 64.8457 104.331 64.7616C104.373 64.6774 104.352 64.5723 104.416 64.4882C104.458 64.404 104.584 64.362 104.626 64.2778C104.668 64.1937 104.626 64.0675 104.668 63.9833C104.71 63.8992 104.815 63.8361 104.857 63.752C104.899 63.6679 104.836 63.5416 104.878 63.4575C104.899 63.3734 105.005 63.3103 105.026 63.2051C105.047 63.121 104.984 63.0158 105.005 62.9107C105.026 62.8265 105.131 62.7424 105.131 62.6582C105.152 62.5741 105.068 62.469 105.089 62.3638C105.089 62.2797 105.194 62.1955 105.194 62.0903C105.194 62.0062 105.11 61.901 105.11 61.8169C105.11 61.7328 105.194 61.6276 105.194 61.5435C105.194 61.4594 105.11 61.3752 105.089 61.2701C105.089 61.1859 105.152 61.0807 105.131 60.9756C105.11 60.8914 105.026 60.8073 105.005 60.7232C104.984 60.639 105.047 60.5339 105.026 60.4287C105.005 60.3446 104.899 60.2815 104.878 60.1763C104.857 60.0922 104.899 59.966 104.857 59.8818C104.815 59.7977 104.71 59.7346 104.668 59.6505C104.626 59.5664 104.668 59.4401 104.626 59.356C104.584 59.2719 104.458 59.2298 104.416 59.1457C104.373 59.0615 104.394 58.9353 104.331 58.8722C104.289 58.7881 104.163 58.7671 104.1 58.683C104.037 58.5988 104.058 58.4936 103.995 58.4095C103.932 58.3464 103.805 58.3254 103.742 58.2623C103.679 58.1992 103.679 58.073 103.616 58.0099C103.553 57.9468 103.427 57.9468 103.364 57.8837C103.301 57.8206 103.279 57.6944 103.216 57.6313C103.153 57.5682 103.027 57.5892 102.943 57.5261C102.859 57.463 102.838 57.3578 102.753 57.2947C102.669 57.2527 102.564 57.2737 102.48 57.2106C102.396 57.1686 102.354 57.0424 102.27 57.0003C102.185 56.9582 102.059 57.0003 101.975 56.9582C101.891 56.9162 101.828 56.811 101.744 56.7689C101.659 56.7268 101.533 56.79 101.449 56.7479C101.365 56.7269 101.302 56.6217 101.197 56.6007C101.112 56.5796 101.007 56.6427 100.902 56.6217C100.818 56.6006 100.734 56.4955 100.65 56.4955C100.565 56.4745 100.46 56.5586 100.355 56.5376C100.271 56.5376 100.187 56.4324 100.082 56.4324C99.9974 56.4324 99.8922 56.5165 99.808 56.5165C99.7239 56.5165 99.6187 56.4324 99.5346 56.4324C99.4504 56.4324 99.3662 56.5165 99.2611 56.5376C99.1769 56.5376 99.0717 56.4745 98.9665 56.4955C98.8823 56.5165 98.7982 56.6006 98.714 56.6217C98.6299 56.6427 98.5247 56.5796 98.4195 56.6007C98.3353 56.6217 98.2722 56.7269 98.167 56.7479C98.0829 56.7689 97.9566 56.7268 97.8725 56.7689C97.7883 56.811 97.7252 56.9162 97.6411 56.9582C97.5569 57.0003 97.4307 56.9582 97.3465 57.0003C97.2623 57.0424 97.2203 57.1686 97.1361 57.2106C97.052 57.2527 96.9257 57.2316 96.8626 57.2947C96.7784 57.3368 96.7574 57.463 96.6733 57.5261C96.5891 57.5892 96.4839 57.5682 96.3997 57.6313C96.3366 57.6944 96.3156 57.8206 96.2525 57.8837C96.1894 57.9468 96.0631 57.9468 96 58.0099C95.9369 58.073 95.9369 58.1992 95.8738 58.2623C95.8107 58.3254 95.6844 58.3464 95.6213 58.4095C95.5582 58.4726 95.5792 58.5988 95.5161 58.683C95.453 58.7671 95.3478 58.7881 95.2847 58.8722C95.2426 58.9564 95.2637 59.0615 95.2005 59.1457C95.1585 59.2298 95.0322 59.2719 94.9902 59.356C94.9481 59.4401 94.9902 59.5664 94.9481 59.6505C94.906 59.7346 94.8008 59.7977 94.7587 59.8818C94.7166 59.966 94.7798 60.0922 94.7377 60.1763C94.7167 60.2605 94.6115 60.3236 94.5904 60.4287C94.5694 60.5129 94.6325 60.618 94.6114 60.7232C94.5904 60.8073 94.4852 60.8914 94.4852 60.9756C94.4642 61.0597 94.5484 61.1649 94.5273 61.2701C94.5273 61.3542 94.4221 61.4383 94.4221 61.5435C94.4221 61.6276 94.5063 61.7328 94.5063 61.8169Z" fill="#002677"/>
<path d="M100.606 59.7347C100.754 60.1974 100.901 59.8819 101.49 59.8188C101.764 59.7767 102.058 59.5244 102.395 59.4192C102.689 59.3351 103.068 59.4192 103.384 59.293C103.657 59.1668 103.846 58.8303 104.141 58.641C104.393 58.4727 104.793 58.4517 105.046 58.2203C105.277 58.01 105.34 57.6313 105.551 57.3579C105.74 57.1055 106.098 56.9583 106.266 56.6638C106.413 56.3904 106.371 56.0118 106.497 55.6963C106.602 55.4018 106.918 55.1705 107.002 54.8339C107.086 54.5395 106.939 54.1819 107.002 53.8454C107.044 53.5299 107.276 53.1723 107.297 52.8358C107.128 52.6675 106.96 52.962 106.729 52.8989C106.497 52.8358 106.56 52.6465 106.329 52.5834C106.098 52.5203 106.055 52.7306 105.824 52.6675C105.593 52.6044 105.656 52.4151 105.424 52.352C105.193 52.2889 105.151 52.4992 104.919 52.4361C104.688 52.373 104.751 52.1837 104.52 52.1206C104.288 52.0575 104.246 52.2679 104.015 52.2048C103.783 52.1417 103.846 51.9524 103.615 51.8893C103.384 51.8262 103.341 52.0365 103.11 51.9734C102.879 51.9103 102.942 51.721 102.71 51.6579C102.479 51.5948 102.458 51.5527 102.311 51.721C102.037 51.9944 102.058 51.9944 101.974 52.373C101.89 52.7516 102.1 52.7937 102.037 53.1513C101.953 53.5299 101.764 53.4878 101.679 53.8454C101.595 54.224 101.806 54.266 101.743 54.6236C101.658 55.0022 101.469 54.9601 101.385 55.3177C101.301 55.6963 101.511 55.7383 101.448 56.0959C101.364 56.4745 101.174 56.4325 101.09 56.79C101.006 57.1686 101.217 57.2107 101.153 57.5682C101.069 57.9468 100.88 57.9048 100.796 58.2624C100.712 58.641 100.943 58.683 100.859 59.0616C100.67 59.4192 100.501 59.3771 100.606 59.7347Z" fill="#002677"/>
<path d="M96.9468 82.7871L109.381 84.659" stroke="#00184D" stroke-width="0.379412" stroke-miterlimit="10" stroke-linecap="round" stroke-linejoin="round"/>
<path d="M113.252 66.9069L115.398 67.5589" stroke="#00184D" stroke-width="0.213154" stroke-miterlimit="10" stroke-linecap="round" stroke-linejoin="round"/>
<path d="M96.0215 127.714H98.5883" stroke="#0075C9" stroke-width="0.379412" stroke-miterlimit="10"/>
<path d="M107.256 133.288L109.718 132.426" stroke="#0075C9" stroke-width="0.379412" stroke-miterlimit="10"/>
<path d="M167.112 176.995L280.575 113.748V94.2712C275.441 93.6823 270.455 91.4317 266.521 87.4985C260.062 81.0413 257.895 71.4291 260.945 62.8054L283.267 0L305.59 62.8054C308.661 71.4291 306.473 81.0202 300.014 87.4985C296.08 91.4317 291.094 93.7033 285.96 94.2712V110.74L322 90.6745" fill="white"/>
<path d="M167.112 176.995L280.575 113.748V94.2712C275.441 93.6823 270.455 91.4317 266.521 87.4985C260.062 81.0413 257.895 71.4291 260.945 62.8054L283.267 0L305.59 62.8054C308.661 71.4291 306.473 81.0202 300.014 87.4985C296.08 91.4317 291.094 93.7033 285.96 94.2712V110.74L322 90.6745" stroke="#00184D" stroke-width="0.379412" stroke-miterlimit="10" stroke-linecap="round" stroke-linejoin="round"/>
<path d="M0 141.975L27.4557 126.684V103.484C12.0342 102.537 0 94.8602 0 85.5214C0 80.5365 3.45038 76.0143 9.00463 72.7542C11.1296 71.5132 11.7397 68.7999 10.4142 66.7176C9.55163 65.3505 9.08877 63.8571 9.08877 62.3006C9.08877 58.6408 11.7186 55.3387 15.9264 53.025C17.9672 51.9102 18.7456 49.3862 17.6095 47.346C17.1887 46.5678 16.9573 45.7474 16.9573 44.8851C16.9573 42.4452 18.7877 40.2788 21.6911 38.7854C23.2479 37.9861 24.2788 36.4507 24.2788 34.705V34.3054C24.2788 30.5825 27.4767 27.6168 31.2637 27.9743C34.5668 28.2898 37.0073 31.2555 37.0073 34.5788V34.705C37.0073 36.4507 38.0382 38.0072 39.5951 38.7854C42.4984 40.2577 44.3288 42.4452 44.3288 44.8851C44.3288 45.7474 44.0974 46.5678 43.6766 47.346C42.5616 49.3862 43.319 51.9102 45.3598 53.025C49.5675 55.3387 52.1974 58.6408 52.1974 62.3006C52.1974 63.8571 51.7345 65.3294 50.8719 66.7176C49.5675 68.7999 50.1776 71.4922 52.2815 72.7542C57.8358 76.0143 61.2861 80.5365 61.2861 85.5214C61.2861 94.8602 49.2519 102.537 33.8305 103.484V123.129L78.3065 98.3727" stroke="#00184D" stroke-width="0.379412" stroke-miterlimit="10"/>
</g>
<defs>
<linearGradient id="paint0_linear_2074_149892" x1="118.68" y1="-42.614" x2="118.68" y2="108.354" gradientUnits="userSpaceOnUse">
<stop stop-color="#F9FBFD" stop-opacity="0"/>
<stop offset="1" stop-color="#5493BD"/>
</linearGradient>
<clipPath id="clip0_2074_149892">
<rect width="322" height="206" fill="white"/>
</clipPath>
</defs>
</svg>
