<svg width="24" height="28" viewBox="0 0 24 28" fill="none" xmlns="http://www.w3.org/2000/svg">
<g id="a">
<path id="Vector" d="M12.0001 5.55878C13.482 5.55878 14.6984 4.35657 14.6984 2.86044C14.6984 1.36474 13.4958 0.162109 12.0001 0.162109C10.5044 0.162109 9.30176 1.36474 9.30176 2.86044C9.30176 4.35614 10.5044 5.55878 12.0001 5.55878ZM12.0001 1.11878C12.9577 1.11878 13.7418 1.90281 13.7418 2.86044C13.7418 3.81807 12.9577 4.60211 12.0001 4.60211C11.0425 4.60211 10.2584 3.81807 10.2584 2.86044C10.2584 1.90281 11.0425 1.11878 12.0001 1.11878Z" fill="#5493BD" stroke="#5493BD" stroke-width="0.25"/>
<path id="Vector_2" d="M9.93295 6.90427L9.93324 6.90424L12.0119 5.895C11.0799 5.89501 10.3403 5.90824 9.83934 5.96239L9.83934 5.96238L9.83805 5.96254C8.20254 6.15658 6.96777 7.52926 6.96777 9.18V13.3C6.96777 13.5512 7.17627 13.7641 7.42611 13.7715V13.7717H7.43944V13.7715C7.68927 13.7641 7.89777 13.5512 7.89777 13.3V9.18C7.89777 8.01643 8.77042 7.03063 9.93295 6.90427Z" fill="#5493BD" stroke="#5493BD" stroke-width="0.25"/>
<path id="Vector_3" d="M21.3447 9.0029L21.3306 8.97461H21.2533C20.2385 8.97461 19.396 9.80263 19.3817 10.8178L19.3817 10.8182L19.3283 15.4448V15.4463C19.3283 15.5464 19.3222 15.6465 19.3098 15.7468C19.2719 15.6958 19.2298 15.646 19.1817 15.5979C18.8385 15.2547 18.3935 15.0679 17.9067 15.0679C17.4337 15.0679 16.9752 15.2543 16.6316 15.5979L12.5916 19.6379C12.3473 19.8822 12.1572 20.1523 12 20.4393C11.8428 20.1523 11.6527 19.8822 11.4084 19.6379L7.36839 15.5979C7.02521 15.2547 6.5802 15.0679 6.09333 15.0679C5.60503 15.0679 5.1604 15.2558 4.79161 15.6246C4.75441 15.6618 4.72029 15.7003 4.6885 15.7395C4.67773 15.6455 4.67167 15.5523 4.67168 15.4596L4.67166 15.4582L4.61833 10.8315L4.61832 10.8312C4.60402 9.81596 3.76147 8.98794 2.74667 8.98794C1.73158 8.98794 0.875 9.82996 0.875 10.8596V17.6729C0.875 18.6525 1.24794 19.5639 1.93741 20.2671L2.02667 20.1796L1.93745 20.2672L1.93759 20.2673L1.93813 20.2679L1.94029 20.2701L1.94884 20.2788L1.98218 20.3128L2.10876 20.4419L2.56074 20.9029L3.93407 22.3038C4.93351 23.3232 5.9377 24.3474 5.95161 24.3613L5.95107 24.3619L5.96191 24.3705C6.19854 24.5598 6.32833 24.8304 6.32833 25.1396V27.3663C6.32833 27.622 6.5443 27.8379 6.8 27.8379H17.2C17.4557 27.8379 17.6717 27.622 17.6717 27.3663V25.1396C17.6717 24.8458 17.7998 24.5617 18.077 24.3447L18.083 24.34L18.0884 24.3347L18.3417 24.0813L18.3427 24.0804L18.9551 23.4547C18.9552 23.4545 18.9554 23.4543 18.9556 23.4541C19.1372 23.2719 19.137 22.9665 18.9551 22.7846C18.7729 22.6024 18.4671 22.6024 18.2849 22.7845L18.284 22.7855L17.6716 23.4112L17.6707 23.4122L17.4361 23.6467C16.9833 24.0171 16.7283 24.5575 16.7283 25.1396V26.8946H12.4717V22.2196C12.4717 21.4927 12.7519 20.8178 13.2617 20.308L17.3017 16.268C17.4634 16.1063 17.6709 16.0246 17.9067 16.0246C18.1358 16.0246 18.3458 16.1149 18.5397 16.2961C18.6901 16.4472 18.7817 16.6553 18.7817 16.8729C18.7817 17.0383 18.7157 17.1987 18.6078 17.3431L18.5291 17.4415L18.4534 17.5361L17.2049 18.7846L16.2183 19.7712C16.0361 19.9534 16.0361 20.2592 16.2183 20.4413C16.4004 20.6235 16.7062 20.6235 16.8884 20.4413L19.2084 18.1213L19.2227 18.107L19.2317 18.0891L19.2317 18.089L19.2318 18.0889L19.2318 18.0889L19.2318 18.0889L19.2318 18.0889L19.2318 18.0888L19.2326 18.0874L19.2363 18.0805C19.2397 18.0743 19.2445 18.066 19.2501 18.0572C19.2559 18.0482 19.2616 18.0403 19.2667 18.0342C19.2691 18.0312 19.2708 18.0296 19.2715 18.0289L19.2829 18.0212L19.2937 18.009C19.9124 17.3078 20.2712 16.4262 20.285 15.4881L20.285 15.4877L20.3383 10.8611V10.8596C20.3383 10.3594 20.7582 9.95794 21.2667 9.95794C21.772 9.95794 22.195 10.3697 22.195 10.8863V17.6996C22.195 18.4262 21.915 19.1017 21.404 19.6255L21.3447 9.0029ZM21.3447 9.0029C22.338 9.04422 23.1383 9.87005 23.1383 10.8729V17.6863C23.1383 18.6662 22.7518 19.5907 22.076 20.2804L21.3447 9.0029ZM4.60983 17.872L4.61054 17.8729C4.66306 17.9385 4.72004 18.0098 4.79161 18.0813L7.11161 20.4013C7.29376 20.5835 7.59957 20.5835 7.78172 20.4013C7.96387 20.2192 7.96387 19.9134 7.78172 19.7312L7.69333 19.8196L7.78171 19.7312L7.78168 19.7312L7.78155 19.731L7.78103 19.7305L7.77897 19.7285L7.77093 19.7204L7.74042 19.6899L7.63131 19.5808L7.29839 19.2479L6.79506 18.7446L5.54172 17.4912C5.51087 17.4604 5.47957 17.426 5.44583 17.3889L5.44482 17.3878C5.415 17.3549 5.3832 17.32 5.35089 17.2871C5.26231 17.1506 5.21833 17.0043 5.21833 16.8329C5.21833 16.6146 5.29715 16.4192 5.47506 16.2413C5.63986 16.0765 5.84865 15.9846 6.08 15.9846C6.30017 15.9846 6.52171 16.0781 6.67161 16.228L10.7116 20.268C11.2215 20.7778 11.5017 21.4527 11.5017 22.1796V26.8546H7.245V25.0996C7.245 24.5191 6.99137 23.98 6.54089 23.6097L2.60947 19.5857L4.60983 17.872ZM4.60983 17.872C4.05875 17.1969 3.74212 16.3431 3.72835 15.4482M4.60983 17.872L3.72835 15.4482M3.72835 15.4482L3.72834 15.4477L3.67502 10.8218C3.66287 10.3283 3.26346 9.91794 2.74667 9.91794C2.23006 9.91794 1.81833 10.3409 1.81833 10.8463V17.6596C1.81833 18.3862 2.09838 19.0617 2.60941 19.5856L3.72835 15.4482ZM21.4039 19.6257L20.7916 20.2512C20.7914 20.2514 20.7912 20.2516 20.7911 20.2518C20.6095 20.434 20.6096 20.7394 20.7916 20.9213C20.8874 21.0171 21.0158 21.0513 21.12 21.0513C21.2321 21.0513 21.3709 20.9988 21.4617 20.908L21.4627 20.907L22.0759 20.2804L21.4039 19.6257Z" fill="#5493BD" stroke="#5493BD" stroke-width="0.25"/>
<path id="Vector_4" d="M19.7823 22.5751L19.7823 22.5751L19.783 22.5744L20.6227 21.7214C20.8045 21.5392 20.8043 21.2337 20.6223 21.0517C20.4402 20.8695 20.1343 20.8695 19.9522 21.0517L19.9156 21.0883V21.1022L19.1118 21.9187C18.93 22.1009 18.9302 22.4064 19.1122 22.5884C19.208 22.6842 19.3364 22.7184 19.4406 22.7184C19.5527 22.7184 19.6915 22.6659 19.7823 22.5751Z" fill="#5493BD" stroke="#5493BD" stroke-width="0.25"/>
<path id="Vector_5" d="M9.31543 10.833V13.313C9.31543 13.5687 9.53139 13.7847 9.7871 13.7847C10.0428 13.7847 10.2588 13.5687 10.2588 13.313V10.833C10.2588 10.5773 10.0428 10.3613 9.7871 10.3613C9.53139 10.3613 9.31543 10.5773 9.31543 10.833Z" fill="#5493BD" stroke="#5493BD" stroke-width="0.25"/>
<path id="Vector_6" d="M13.7285 10.833V13.313C13.7285 13.5687 13.9445 13.7847 14.2002 13.7847C14.4559 13.7847 14.6718 13.5687 14.6718 13.313V10.833C14.6718 10.5773 14.4559 10.3613 14.2002 10.3613C13.9445 10.3613 13.7285 10.5773 13.7285 10.833Z" fill="#5493BD" stroke="#5493BD" stroke-width="0.25"/>
</g>
</svg>
