<svg width="139" height="30" viewBox="0 0 139 30" fill="none" xmlns="http://www.w3.org/2000/svg">
<path d="M12.3801 8.82C11.416 8.81802 10.4731 9.10221 9.6707 9.63657C8.86831 10.1709 8.24256 10.9314 7.87272 11.8217C7.50289 12.712 7.4056 13.692 7.59319 14.6376C7.78078 15.5832 8.24481 16.4519 8.9265 17.1336C9.60818 17.8153 10.4768 18.2793 11.4225 18.4669C12.3681 18.6545 13.3481 18.5572 14.2384 18.1874C15.1287 17.8175 15.8892 17.1918 16.4235 16.3894C16.9579 15.587 17.2421 14.644 17.2401 13.68C17.2375 12.3919 16.7246 11.1572 15.8137 10.2464C14.9029 9.33553 13.6682 8.82264 12.3801 8.82ZM10.5701 20.5C9.36333 19.5833 8.28681 18.5068 7.37009 17.3C6.60493 16.2674 6.17555 15.0247 6.14009 13.74C6.12849 12.6348 6.47978 11.5563 7.14009 10.67C7.94009 9.38 8.78009 8.1 9.47009 6.97C9.80009 6.42 10.1301 5.84 10.4701 5.2C11.1601 3.93 12.1701 2.45 11.2001 0.76L11.1201 0.639999L11.0401 0.5H10.9601L10.8601 0.549999L10.8001 0.629999C10.7201 0.749999 7.37009 5.35 0.260091 14.92C0.108979 15.1552 0.032307 15.4305 0.0400897 15.71C0.0317745 16.0652 0.133029 16.4144 0.330091 16.71L4.22009 23.03C4.57489 23.9718 4.74137 24.9741 4.7101 25.98V28.11C4.70981 28.4173 4.78997 28.7192 4.9426 28.9859C5.09523 29.2526 5.31501 29.4746 5.58009 29.63C5.77517 29.7451 5.9942 29.8135 6.22009 29.83H6.40009H11.6001V24.55C11.6293 23.6948 11.5892 22.8387 11.4801 21.99C11.3581 21.4083 11.0404 20.886 10.5801 20.51L10.5701 20.5ZM13.2801 21.99C13.1743 22.839 13.1375 23.6951 13.1701 24.55V29.93H18.3701H18.5401C18.7694 29.9151 18.992 29.8466 19.1901 29.73C19.452 29.5719 19.6687 29.349 19.8193 29.0827C19.97 28.8165 20.0494 28.5159 20.0501 28.21V26.04C20.014 25.0338 20.1807 24.0305 20.5401 23.09L24.4301 16.77C24.6301 16.4752 24.7348 16.1262 24.7301 15.77C24.7349 15.4895 24.6547 15.2141 24.5001 14.98C17.3801 5.41 14.0401 0.810001 13.9501 0.690001V0.610001L13.8001 0.5H13.7101L13.6501 0.59L13.5801 0.709999C12.5801 2.4 13.5801 3.88 14.3001 5.15C14.6501 5.79 14.9701 6.37 15.3001 6.92C16.0001 8.05 16.8401 9.33 17.6401 10.62C18.2965 11.5084 18.6473 12.5855 18.6401 13.69C18.6092 14.9755 18.1793 16.2196 17.4101 17.25C16.4987 18.4614 15.4215 19.5386 14.2101 20.45C13.7528 20.8286 13.4358 21.3498 13.3101 21.93L13.2801 21.99ZM93.6201 27.15H88.9601V3.75H93.6201V27.15ZM51.8001 18.5C51.4238 17.8234 50.9052 17.2366 50.2801 16.78C49.6272 16.3134 48.9051 15.9524 48.1401 15.71C47.3401 15.44 46.5301 15.22 45.7101 15.03L43.2701 14.5C42.5431 14.3612 41.8277 14.1673 41.1301 13.92L40.8401 13.81L40.6001 13.71L40.1601 13.47C39.8537 13.2706 39.6078 12.991 39.4491 12.6617C39.2905 12.3324 39.2251 11.9658 39.2602 11.6019C39.2952 11.2381 39.4293 10.8907 39.6479 10.5977C39.8665 10.3047 40.1613 10.0772 40.5001 9.94C40.8706 9.81592 41.2524 9.72884 41.6401 9.68C42.0183 9.63254 42.3989 9.60583 42.7801 9.6C43.7072 9.58481 44.6261 9.7761 45.4701 10.16C45.8788 10.3751 46.2284 10.6873 46.4882 11.0692C46.748 11.451 46.9101 11.8909 46.9601 12.35H51.7001C51.5975 11.3092 51.2553 10.3063 50.7001 9.42C50.1923 8.61145 49.5086 7.92782 48.7001 7.42C47.8941 6.90313 47.0041 6.53089 46.0701 6.32C45.0857 6.09632 44.0796 5.9823 43.0701 5.98C42.0838 5.98817 41.1002 6.08186 40.1301 6.26C39.1555 6.44088 38.2166 6.7786 37.3501 7.26C36.5301 7.70893 35.8198 8.3339 35.2701 9.09C34.7088 9.917 34.4251 10.9011 34.4601 11.9C34.4281 12.8018 34.6169 13.6978 35.0101 14.51C35.3701 15.1973 35.8833 15.7927 36.5101 16.25C37.1546 16.7124 37.8662 17.0733 38.6201 17.32C39.4237 17.5914 40.2416 17.8184 41.0701 18L43.5001 18.52C44.2271 18.6588 44.9425 18.8527 45.6401 19.1C46.1849 19.2823 46.688 19.5713 47.1201 19.95C47.3365 20.1526 47.5093 20.3972 47.6279 20.6689C47.7466 20.9406 47.8085 21.2336 47.8101 21.53C47.8108 21.8244 47.7508 22.1158 47.6338 22.3859C47.5168 22.6561 47.3453 22.8992 47.1301 23.1C46.862 23.3436 46.5497 23.5337 46.2101 23.66C45.7182 23.8508 45.2041 23.9785 44.6801 24.04C44.1955 24.0992 43.7082 24.1326 43.2201 24.14C42.1194 24.17 41.0322 23.893 40.0801 23.34C39.6205 23.032 39.2422 22.6174 38.9776 22.1316C38.7129 21.6458 38.5697 21.1032 38.5601 20.55H34.0501C34.0442 21.6501 34.2977 22.7362 34.7901 23.72C35.2456 24.6011 35.8995 25.3645 36.7001 25.95C37.5684 26.5718 38.5451 27.0263 39.5801 27.29C40.7595 27.5911 41.9729 27.739 43.1901 27.73C44.2803 27.7244 45.3667 27.6003 46.4301 27.36C47.4872 27.1466 48.5012 26.7579 49.4301 26.21C50.3074 25.6983 51.0537 24.9897 51.6101 24.14C52.192 23.2094 52.4843 22.127 52.4501 21.03C52.4558 20.1446 52.2319 19.2729 51.8001 18.5ZM86.8001 13.87C86.633 13.0719 86.2915 12.3206 85.8001 11.67C85.3043 11.0428 84.6526 10.5566 83.9101 10.26C82.9305 9.8889 81.8871 9.71556 80.8401 9.75C80.1608 9.75134 79.4859 9.85932 78.8401 10.07C77.7183 10.4503 76.7292 11.1444 75.9901 12.07L75.7801 12.38V10.21H71.2001V27.21H75.8701V18.31C75.7606 17.0087 76.0576 15.7054 76.7201 14.58L76.9301 14.34C77.2193 14.0053 77.5769 13.7365 77.9789 13.5519C78.3809 13.3673 78.8178 13.2712 79.2601 13.27C79.9106 13.2702 80.5446 13.4751 81.0722 13.8555C81.5999 14.236 81.9944 14.7728 82.2001 15.39C82.3964 16.12 82.4873 16.8743 82.4701 17.63V27.22H87.1301V16.77C87.1381 15.8033 87.0476 14.8383 86.8601 13.89L86.8001 13.87ZM138.18 13.03C137.91 12.307 137.471 11.6589 136.9 11.14C136.317 10.66 135.634 10.3181 134.9 10.14C134.09 9.91415 133.251 9.80307 132.41 9.81C131.321 9.78408 130.248 10.0835 129.33 10.67C128.521 11.1948 127.825 11.8745 127.28 12.67C126.912 11.7123 126.199 10.9273 125.28 10.47C124.36 10.0423 123.355 9.82697 122.34 9.84C121.294 9.81747 120.259 10.0691 119.34 10.57C118.558 11.0157 117.877 11.6183 117.34 12.34V10.34H112.7V27.34H117.36V17.35C117.337 16.6654 117.46 15.9837 117.72 15.35C117.916 14.8954 118.214 14.4917 118.59 14.17C118.899 13.9151 119.256 13.7247 119.64 13.61L119.96 13.53C120.11 13.5197 120.26 13.5197 120.41 13.53C121.117 13.5294 121.8 13.7873 122.331 14.255C122.861 14.7228 123.202 15.3683 123.29 16.07V16.24C123.29 16.73 123.29 17.24 123.29 17.73V27.26H127.95V17.75C127.949 17.2277 127.99 16.7061 128.07 16.19C128.116 15.8721 128.196 15.5602 128.31 15.26C128.553 14.6843 128.975 14.2022 129.513 13.8849C130.052 13.5676 130.678 13.432 131.299 13.4982C131.921 13.5643 132.504 13.8288 132.963 14.2523C133.423 14.6759 133.734 15.2361 133.85 15.85V15.97C133.85 16.48 133.92 16.97 133.92 17.58V27.21H138.58V15.84C138.605 14.8828 138.449 13.9294 138.12 13.03H138.18ZM64.7001 20.64C64.6902 20.9745 64.6635 21.3082 64.6201 21.64C64.5534 22.0978 64.4007 22.5389 64.1701 22.94C63.9008 23.396 63.5185 23.7749 63.0601 24.04C62.4013 24.3835 61.6619 24.5424 60.9201 24.5C60.5474 24.5306 60.1728 24.5306 59.8001 24.5C59.6939 24.4807 59.5901 24.4506 59.4901 24.41C58.9878 24.2321 58.568 23.8764 58.3101 23.41C58.1689 23.1815 58.0769 22.9261 58.0401 22.66V22.06L58.1101 21.73C58.2016 21.3839 58.3773 21.0658 58.6216 20.8041C58.8659 20.5424 59.1711 20.3451 59.5101 20.23H59.6401C60.3918 20.0382 61.1528 19.8846 61.9201 19.77L62.9901 19.61C63.3115 19.5457 63.6287 19.4622 63.9401 19.36C64.2111 19.2727 64.4624 19.1335 64.6801 18.95L64.7001 20.64ZM69.4901 25.64C69.3999 24.9102 69.3565 24.1754 69.3601 23.44V14.88C69.3573 13.9414 69.0817 13.0239 68.5668 12.2391C68.052 11.4543 67.32 10.8362 66.4601 10.46C65.8181 10.2028 65.1461 10.0281 64.4601 9.94C63.5985 9.82102 62.7298 9.76089 61.8601 9.76C60.9166 9.76349 59.9757 9.85726 59.0501 10.04C58.1671 10.212 57.3188 10.5296 56.5401 10.98C56.3343 11.0994 56.1371 11.233 55.9501 11.38C55.3577 11.9006 54.8814 12.54 54.5524 13.2567C54.2233 13.9734 54.0487 14.7514 54.0401 15.54V15.64H58.7001C58.7315 15.1696 58.8257 14.7055 58.9801 14.26C59.1041 13.9356 59.3013 13.6442 59.5562 13.4083C59.8112 13.1724 60.117 12.9985 60.4501 12.9C60.9121 12.771 61.3905 12.7103 61.8701 12.72C62.4512 12.7046 63.0294 12.8066 63.5701 13.02C63.9183 13.1692 64.2149 13.4175 64.4229 13.734C64.6309 14.0505 64.7413 14.4212 64.7401 14.8C64.7318 15.1949 64.6067 15.5784 64.3807 15.9023C64.1547 16.2262 63.8378 16.4759 63.4701 16.62L63.1001 16.73C62.5052 16.8733 61.9 16.9703 61.2901 17.02C60.6101 17.09 59.9301 17.18 59.2201 17.29C58.5101 17.4 57.8301 17.55 57.1401 17.73C56.9201 17.79 56.5401 17.94 56.5401 17.94C55.7569 18.2585 55.0692 18.7738 54.5437 19.436C54.0181 20.0982 53.6724 20.885 53.5401 21.72C53.5401 21.9467 53.5401 22.1867 53.5401 22.44C53.5391 22.7746 53.5625 23.1088 53.6101 23.44C53.8094 24.3449 54.2563 25.1766 54.9008 25.8423C55.5453 26.508 56.3621 26.9815 57.2601 27.21C57.9436 27.3802 58.6457 27.4642 59.3501 27.46C60.3662 27.4423 61.3753 27.2875 62.3501 27C63.3521 26.7016 64.2587 26.1466 64.9801 25.39C65.0282 25.9506 65.1389 26.504 65.3101 27.04H70.0401C69.7789 26.5509 69.6223 26.0129 69.5801 25.46L69.4901 25.64ZM106.35 20.46C106.345 20.7947 106.318 21.1287 106.27 21.46C106.212 21.9184 106.062 22.3604 105.83 22.76C105.557 23.2164 105.171 23.5951 104.71 23.86C104.055 24.2046 103.319 24.3636 102.58 24.32C102.218 24.3186 101.857 24.2885 101.5 24.23C101.39 24.2117 101.283 24.1815 101.18 24.14C100.681 23.9616 100.264 23.6057 100.01 23.14C99.87 22.9101 99.7749 22.6555 99.7301 22.39V22.22V21.79L99.7901 21.46C99.8816 21.1139 100.057 20.7958 100.302 20.5341C100.546 20.2724 100.851 20.0751 101.19 19.96H101.33C102.078 19.7674 102.836 19.6138 103.6 19.5L104.67 19.34C104.992 19.2769 105.309 19.1934 105.62 19.09C105.891 19.0027 106.142 18.8635 106.36 18.68L106.35 20.46ZM111.15 25.46C111.056 24.7304 111.01 23.9956 111.01 23.26V14.88C111.014 14.5913 110.987 14.3031 110.93 14.02C110.765 13.2421 110.414 12.5156 109.907 11.9027C109.401 11.2898 108.753 10.8085 108.02 10.5C107.379 10.2403 106.707 10.0655 106.02 9.98C105.162 9.86102 104.297 9.80087 103.43 9.8C102.487 9.80349 101.546 9.89726 100.62 10.08C99.7365 10.25 98.8879 10.5677 98.1101 11.02C97.9026 11.1417 97.7022 11.2752 97.5101 11.42H97.4501C96.8563 11.9401 96.3785 12.5792 96.0478 13.2959C95.717 14.0125 95.5406 14.7907 95.5301 15.58V15.68H100.19C100.222 15.2096 100.316 14.7455 100.47 14.3C100.596 13.9753 100.796 13.6839 101.052 13.4481C101.309 13.2124 101.616 13.0385 101.95 12.94C102.409 12.8108 102.884 12.7501 103.36 12.76C103.941 12.7435 104.52 12.8456 105.06 13.06C105.408 13.2092 105.705 13.4575 105.913 13.774C106.121 14.0905 106.231 14.4612 106.23 14.84C106.222 15.2349 106.097 15.6184 105.871 15.9423C105.645 16.2662 105.328 16.5159 104.96 16.66C104.836 16.7039 104.709 16.7407 104.58 16.77C103.989 16.9134 103.387 17.0103 102.78 17.06C102.113 17.1267 101.423 17.2167 100.71 17.33C100.01 17.44 99.3101 17.59 98.6201 17.77C98.4101 17.83 98.0201 17.98 98.0201 17.98C97.2364 18.2976 96.5482 18.8127 96.0225 19.4751C95.4968 20.1375 95.1515 20.9246 95.0201 21.76C95.0046 21.9997 95.0046 22.2402 95.0201 22.48C95.0223 22.8148 95.0491 23.1491 95.1001 23.48C95.2986 24.3836 95.744 25.2145 96.3866 25.8801C97.0293 26.5457 97.844 27.0199 98.7401 27.25C99.4272 27.419 100.132 27.503 100.84 27.5C101.873 27.4853 102.899 27.3306 103.89 27.04C104.892 26.7416 105.799 26.1866 106.52 25.43C106.555 25.9924 106.666 26.5474 106.85 27.08H111.58C111.315 26.5925 111.158 26.0536 111.12 25.5" fill="#0075C9"/>
</svg>
